<?xml version="1.0" encoding="utf-8"?>
<!-- Generator: Adobe Illustrator 21.0.2, SVG Export Plug-In . SVG Version: 6.00 Build 0)  -->
<svg version="1.1" id="Layer_1" xmlns="http://www.w3.org/2000/svg" xmlns:xlink="http://www.w3.org/1999/xlink" x="0px" y="0px"
	 viewBox="0 0 1878 1634.5" style="enable-background:new 0 0 1878 1634.5;" xml:space="preserve">
<style type="text/css">
	.st0{fill:#5B5B5B;stroke:#5B5B5B;stroke-width:0.8494;}
	.st1{fill:#A9A9A9;stroke:#A9A9A9;stroke-width:0.8494;}
	.st2{fill:#FDFDFD;stroke:#FDFDFD;stroke-width:0.2822;}
	.st3{fill:#FEFEFE;stroke:#FEFEFE;stroke-width:0.2822;}
	.st4{fill:#5B5B5B;stroke:#5B5B5B;stroke-width:0.2822;}
	.st5{fill:#F4F4F4;stroke:#F4F4F4;stroke-width:0.2822;}
	.st6{fill:#212121;stroke:#212121;stroke-width:0.2822;}
	.st7{fill:#E9E9E9;stroke:#E9E9E9;stroke-width:0.2822;}
	.st8{fill:#ACACAC;stroke:#ACACAC;stroke-width:0.2822;}
	.st9{fill:#FCFCFC;stroke:#FCFCFC;stroke-width:0.2822;}
	.st10{fill:#5C5C5C;stroke:#5C5C5C;stroke-width:0.8494;}
	.st11{fill:#5C5C5C;stroke:#5C5C5C;stroke-width:0.2822;}
	.st12{fill:#222222;stroke:#222222;stroke-width:0.2822;}
	.st13{fill:#FBFBFB;stroke:#FBFBFB;stroke-width:0.2822;}
	.st14{fill:#A9A9A9;stroke:#A9A9A9;stroke-width:0.2822;}
	.st15{fill:#393939;stroke:#393939;stroke-width:0.2822;}
	.st16{fill:#595959;stroke:#595959;stroke-width:0.8494;}
	.st17{fill:#1A1A1A;stroke:#1A1A1A;stroke-width:0.2822;}
	.st18{fill:#ECECEC;stroke:#ECECEC;stroke-width:0.2822;}
	.st19{fill:#F3F3F3;stroke:#F3F3F3;stroke-width:0.2822;}
	.st20{fill:#040404;stroke:#040404;stroke-width:0.2822;}
	.st21{fill:#090909;stroke:#090909;stroke-width:0.2822;}
	.st22{fill:#626262;stroke:#626262;stroke-width:0.2822;}
	.st23{fill:#363636;stroke:#363636;stroke-width:0.8494;}
	.st24{fill:#575757;stroke:#575757;stroke-width:0.8494;}
	.st25{fill:#AAAAAA;stroke:#AAAAAA;stroke-width:0.2822;}
	.st26{fill:#2A2A2A;stroke:#2A2A2A;stroke-width:0.2822;}
	.st27{fill:#EFEFEF;stroke:#EFEFEF;stroke-width:0.2822;}
	.st28{fill:#4C4C4C;stroke:#4C4C4C;stroke-width:0.2822;}
	.st29{fill:#1B1B1B;stroke:#1B1B1B;stroke-width:0.2822;}
	.st30{fill:#171717;stroke:#171717;stroke-width:0.8494;}
	.st31{fill:#636363;stroke:#636363;stroke-width:0.2822;}
	.st32{fill:#262626;stroke:#262626;stroke-width:0.2822;}
	.st33{fill:#444444;stroke:#444444;stroke-width:0.2822;}
</style>
<path class="st0" d="M496.4,49.4c4.6-5.7,13.2-4.9,17.7-10.7c6,12.6,23.3,12.1,31.5,22.6c-12.8,0-24.9,3.7-36,9.8
	c-17.3,4.2-23.8,23-33,36.2C475.9,86.6,481.6,64.4,496.4,49.4 M490.8,77.1c8.2-7,16.3-14.3,26.1-19.1c0.1-1.1,0.4-3.3,0.5-4.4
	C503.7,51.3,493.4,65,490.8,77.1L490.8,77.1z"/>
<path class="st1" d="M514.1,38.7c7.1,0,16.8-2.6,22.4,2.5h-9.6c8.2,8.8,20.4,11.6,30.1,18.3c5.8,3.2,11.1,8.6,18.2,8.3
	c2.1-6.7-5.8-10.3-9.5-14.4c5.1,1.6,10.1,3.9,15.3,5.2c8-4.7,16.6-12.9,26.5-8.3c12,9.5,13.7,26.2,22.2,38.2
	c8.9-0.8,20.6-5.8,27.1,3.2c-6-2-12.3-3.4-18.6-3.2c6.8,5.4,13.3,11.1,18.3,18.4c2.6-3.2,3.3-7.2,3.8-11.1
	c5.2,11.2,18.8,9.3,26.8,16.8c-7-1.3-14-2.2-21.1-2.4c6.6,6.9,13.8,13.3,20.1,20.6c1.3-4.7,2.4-9.4,3.6-14l2.4,0.3
	c1.1,10.5,0.1,24.3-11.4,28.8c-2.8-1-5.7-2-8.4-2.8c0.5-0.9,1.4-2.7,1.9-3.6c-3.9-8.1-9.3-15.5-14.7-22.6c-4.6,3.4-7.9,11-14.6,9
	c-8.9-2.2-9.7-13-15.3-18.9c-1.1,10.7,0,21.6-0.4,32.4c-0.5,0.8-1.5,2.3-2,3l-2.8,0.5c-7.9-11.8-10.1-26.6-19-37.7
	c-3.6,7.9-3.7,16.9-7.3,24.9c-4.1,9.7-12.6,18.6-23.4,19.9c3.3-8.8,12.7-14.9,12.6-24.9c1.9-14-12.7-23.5-24.2-27.1
	c1.3,11.1,5.8,22.2,3,33.6c-7.9-2.5-12.4-11.6-21.2-12.8c-10.3-2.9-20.2,1.8-29.2,6.4c1.5-14.2,13.3-23.1,25.7-27.8l0.5-2.6
	c-20-2.7-29.3,18.7-41.7,30.2c-1.2-14,9.4-23.7,15.1-35.4C525.4,79.2,540,75,554,76.1c-6.2-7.8-17.3-3.1-24.8,0
	c-14.5,5.7-25.3,17.4-38.3,25.4c2.8-11.9,10.9-21.4,18.7-30.4c11.1-6.1,23.2-9.8,36-9.8C537.3,50.7,520.1,51.3,514.1,38.7
	 M600.2,55.8c4.5,9.5,10.5,18.1,14,28.1c1.5,5.7,6.8,8.9,12.2,10.4C621.4,79.7,614.8,63.1,600.2,55.8 M579.2,74.1
	c6.7,9.1,22.1,11.2,28,22.4c3.9,4.4,4.6,12.9,10.9,14.2c-1.4-15.8-9.9-34.9-27.3-37.7C587.1,72.5,582.1,70.8,579.2,74.1 M563.3,83.7
	c9,7.8,20.5,12.1,29.8,19.7c1.3-4.4,2.8-8.8,2.4-13.4C587.9,80.6,574.1,81.2,563.3,83.7L563.3,83.7z"/>
<path class="st2" d="M526.9,41.1h9.6c10.6,1.6,20,7.2,29.3,12.3c3.7,4.1,11.5,7.7,9.5,14.4c-7.1,0.3-12.3-5.2-18.2-8.3
	C547.3,52.8,535,49.9,526.9,41.1L526.9,41.1z"/>
<path class="st3" d="M490.8,77.1c2.6-12,12.9-25.7,26.6-23.5c-0.1,1.1-0.4,3.3-0.5,4.4C507.1,62.8,499.1,70.1,490.8,77.1L490.8,77.1
	z"/>
<path class="st3" d="M600.2,55.8c14.6,7.2,21.2,23.9,26.2,38.5c-5.4-1.5-10.7-4.7-12.2-10.4C610.7,74,604.6,65.3,600.2,55.8
	L600.2,55.8z"/>
<path class="st4" d="M438.7,128.4c-1.2-22.7,2-47.4,15.7-66.1c0.2,16-0.5,32,0.1,48c0.5,9.3-1.1,18.5-5.1,27c-1.3,3-2.4,6.1-3.4,9.3
	C438.4,144,439.8,134.6,438.7,128.4L438.7,128.4z"/>
<path class="st5" d="M579.2,74.1c2.9-3.3,7.9-1.6,11.6-1.1c17.5,2.8,25.9,21.9,27.3,37.7c-6.3-1.3-7-9.9-10.9-14.2
	C601.3,85.3,586,83.1,579.2,74.1L579.2,74.1z"/>
<path class="st6" d="M563.3,83.7c10.7-2.4,24.6-3.1,32.2,6.4c0.4,4.5-1.1,9-2.4,13.4C583.8,95.8,572.3,91.5,563.3,83.7L563.3,83.7z"
	/>
<path class="st1" d="M461.6,88.8c6.5,8.4,7,19.8,13.6,28.3c9.4,11.8,13.9,27.6,27.1,36.1c12.6,8.2,27.4,12.7,42,15.8
	c5-7.6,11.5-15.2,21.4-15.5c8.7,1.7,5.6,14.3,11.9,17.2c3.6-3.9,6.5-8.4,10.7-11.7c2-0.2,6-0.6,8-0.8c-4.1,6.1-11,9.3-16,14.5
	c-2.6,4-1.3,9-0.5,13.4l0.3,2c-8.3,7.9-19.7,5-28.8,0.7c-4.3,1.4-8.2,3.8-12.6,4.9c-9.5-0.2-18-5.3-27.1-7.4
	c-8-0.7-16.1,0.6-24.1,0.3l-2.2-0.8c-12.2-12.5-20.2-28.6-24.9-45.1c10.1,12.3,23.1,21.9,36.9,29.7c13.5,5.7,28.1,8.4,42.4,11.7
	c-0.4-1-1.3-3.1-1.7-4.1c-14.9-6.4-30.7-10.8-45.1-18.1c-7.1-8.3-11.8-18.2-18.1-27.1C464.3,120.4,459,104.7,461.6,88.8 M558,158.4
	c-7.3,5.9-14.2,14.3-16,23.8c9.9-1.6,17.8-8.4,26.4-13C571.3,162.9,564.7,154.1,558,158.4L558,158.4z"/>
<path class="st7" d="M638.3,88.5c6.3-0.2,12.6,1.2,18.6,3.2c0.9,1,2.6,3.1,3.5,4.1c-0.6,3.9-1.2,7.9-3.8,11.1
	C651.6,99.6,645.1,93.9,638.3,88.5L638.3,88.5z"/>
<path class="st8" d="M413,110.1c5.2-3.1,11.7-2.4,17.5-3.1v2c-9.5,3.1-9.8,14.1-9.2,22.4c-2.7-6.4-5.4-12.8-8-19.2L413,110.1
	L413,110.1z"/>
<path class="st9" d="M421.3,131.4c-0.6-8.4-0.2-19.3,9.2-22.4c1.3,17.6,2.6,35.5,9.1,52.2C430.8,153.2,425.8,142.2,421.3,131.4
	L421.3,131.4z"/>
<path class="st2" d="M666.1,110.2c7.1,0.2,14.1,1.1,21.1,2.4c0.6,1.1,1.9,3.2,2.6,4.2c-1.1,4.6-2.2,9.4-3.6,14
	C679.9,123.5,672.7,117.1,666.1,110.2L666.1,110.2z"/>
<path class="st10" d="M407.8,113.7c1.4-0.4,4.1-1.1,5.5-1.4c2.6,6.4,5.3,12.8,8,19.2c4.5,10.7,9.5,21.7,18.3,29.8
	c2.5,4.7,2,10.9,5.9,15.4c4.5,8.3,9.5,16.4,14.5,24.5c4.1,10.8,15,16.3,21,25.6c-12.3,4.9-24.9,9.8-38.2,10.8
	c-12.3-18.1-20.1-39.3-21.3-61.1c0.1-8,1.6-15.9,2.3-23.9c-9.6,8.2-7.3,22-8.9,33.2c-6.4-12-8.7-25.8-12.2-38.8
	C399.7,135.7,403.8,124.2,407.8,113.7 M430.8,188.9c4.4,11.7,9.2,23.8,17.6,33.3c4.5,5.4,12.6,4.6,18.5,2.4c2.4-5-2.5-9.4-5.5-12.6
	C451.9,203.4,441.4,196,430.8,188.9L430.8,188.9z"/>
<path class="st11" d="M629.3,139.3c4.3-4.5,10-11.7,16.7-6.5c4,6.2-0.2,13.6,0.9,20.5c-3.4,3.7-7,7.4-10.3,11.2
	c-10-2.9-5.5-14.8-9.4-22.2C627.8,141.6,628.8,140.1,629.3,139.3L629.3,139.3z"/>
<path class="st12" d="M449.4,137.2l1.8,1c0.6,23.1,10.8,46.8,31.2,59c2.7,1.4,7.7,5.6,9.3,0.5c-3.1-4.2-6.7-7.9-9-12.5l2.7,0.3
	l2.2,0.8c6.4,10.2,17.7,12.9,28.1,17.3c-8.6,2.8-16.9,6.4-25.3,9.7c-10.6-2.9-20.2-8.3-30.3-12.2c-5.1-8.1-10-16.2-14.5-24.5
	c0.5-10.1,0.6-20.1,0.5-30.1C447,143.3,448.2,140.2,449.4,137.2L449.4,137.2z"/>
<path class="st3" d="M646.9,153.3c8.6-2.9,17.3-5.9,25.4-10.2c2.8,0.9,5.6,1.8,8.4,2.8c0.1,2.2,0.2,6.5,0.2,8.7
	c-9.2,8.4-17.4,17.8-27.3,25.4c-2.3-4.3-4.3-8.7-6.6-12.8c-13.8,5.4-9.7,22.4-14.6,33.5c-10.2-3.7-21-8.9-32-5.5
	c-7.9,7.4-15,16.8-26.4,18.8c-13.5,2.3-27.2,2.4-40.7,3.7c7-7.5,17.5-8.3,27.2-8.8c8.2,1,12.3-6.9,17.8-11.3
	c13.2-11.2,30.8-15.7,47.8-14.9c5.2-4.7,5.7-12.9,10.4-18.2C639.9,160.7,643.5,157,646.9,153.3L646.9,153.3z"/>
<path class="st11" d="M695.4,152.1c2.3-5.7,10.4-12.7,14.9-4.9c3.9,10.7-3,20.9-7.2,30.4c-6.4,12.9,8.5,28.4-2.1,40.3
	c-4.7,6.6-14,3.4-19.5-0.1C683.9,195.6,685.1,172.3,695.4,152.1L695.4,152.1z"/>
<path class="st13" d="M596.4,158.1c2.2-2.5,3-6.5,6.3-7.7c2.7,0.6,5.3,1.6,7.9,2.9c-0.9,16.1-16.6,27.5-30.6,32.7
	c-0.8-4.4-2.1-9.4,0.5-13.4C585.4,167.4,592.3,164.2,596.4,158.1L596.4,158.1z"/>
<path class="st11" d="M374.5,152.6c6.6-3.2,11.5,4.3,12.8,9.9c4.6,17.8,5.4,37.6,16.9,52.8c6.9,11.1,18.9,17.2,27.2,27
	c3.8,5.7,11.1,9.4,12.7,16.4c-17.6-0.4-33.6-8.8-49-16.3C381.3,214.8,370.4,183.8,374.5,152.6L374.5,152.6z"/>
<path class="st14" d="M653.7,180c9.9-7.6,18.1-17,27.3-25.4c0.2,5,0.3,10.1-0.6,15.1c-6.5,7.9-16.8,11.4-23.1,19.6
	c-5.8,7.5-13.2,13.8-17.8,22.2c-0.8,3.4-1.2,6.9-1.5,10.5c-0.6-1.7-1.7-5.1-2.3-6.8l-0.8-2c-6.7,0.5-13.2,3.2-19.9,2.1
	c-5.7-2.5-9.8-7.5-14.9-10.8c-5.3,9.4-11.8,19.4-23.1,21.9c-29.2,6-59.6,1.7-87.5-8.2c0.2-1.2,0.5-3.6,0.6-4.8
	c8.4-3.4,16.7-6.9,25.3-9.7c15-1.9,31.2-2.2,44.8,5.3c-9.6,0.6-20.1,1.4-27.2,8.8c13.5-1.3,27.3-1.4,40.7-3.7
	c11.3-2,18.5-11.5,26.4-18.8c11-3.4,21.9,1.8,32,5.5c4.9-11.1,0.9-28.1,14.6-33.5C649.5,171.3,651.4,175.7,653.7,180L653.7,180z"/>
<path class="st2" d="M558,158.4c6.7-4.3,13.3,4.5,10.4,10.7c-8.6,4.6-16.5,11.4-26.4,13C543.8,172.7,550.6,164.3,558,158.4
	L558,158.4z"/>
<path class="st3" d="M430.8,188.9c10.6,7.1,21.2,14.4,30.6,23.1c3,3.3,7.9,7.6,5.5,12.6c-5.9,2.2-14.1,3-18.5-2.4
	C440,212.7,435.1,200.6,430.8,188.9L430.8,188.9z"/>
<path class="st15" d="M460,201.1c10.1,3.9,19.8,9.2,30.3,12.2c-0.2,1.2-0.5,3.6-0.6,4.8c27.8,10,58.3,14.2,87.5,8.2
	c11.3-2.5,17.8-12.5,23.1-21.9c5.1,3.4,9.2,8.4,14.9,10.8c6.7,1.1,13.2-1.6,19.9-2.1l0.8,2c-12.1,12.8-30.4,12.8-45.5,19.6
	c-6.8-0.1-14.7-0.5-16.3,7.9c-9.1-3.3-18.5-5.6-28-6.7c-26.7-2.8-54.1-3.7-80.5,2.3c-5.2,0.9-9.9,3.6-14.3,6.4c-3.6-1.2-6.3-4-8.3-7
	c13.3-1.1,25.9-5.9,38.2-10.8C475,217.4,464.2,211.9,460,201.1L460,201.1z"/>
<path class="st3" d="M638.1,221.9c0.2-3.6,0.7-7.1,1.5-10.5c7.3,5.7,12.1,14.2,20.1,19c7.1-2,12.2-13.2,20.2-8.5
	c-2.7,8.1-6.5,15.8-7.7,24.4c-1,0.7-2.8,2-3.8,2.7c-5.1,0.4-10.1,1.1-15.2,0.7c-6-2.4-11-7.5-17.7-7.3c-14.6,0-29.5,2.4-42.7,8.8
	c-0.6,1.6-1.7,4.8-2.2,6.3l-0.9,2.1c-17-8.7-37.1-2.6-54.5-10.2c-6.3-2.4-12-6.7-14.4-13.2c8.3-0.9,16.7-1,25.1-0.5
	c9.5,1.2,19,3.4,28,6.7c10.3,5.9,21.6-1,32.1-2.6c11.1-3.3,23.6-3.1,33.6-9.2C639.3,228.6,638.5,224.2,638.1,221.9L638.1,221.9z"/>
<path class="st6" d="M590.3,234.7c15.1-6.7,33.4-6.8,45.5-19.6c0.6,1.7,1.7,5.1,2.3,6.8c0.4,2.2,1.2,6.7,1.7,8.9
	c-10,6.1-22.5,5.9-33.6,9.2c-10.6,1.5-21.8,8.5-32.1,2.6C575.7,234.1,583.6,234.6,590.3,234.7L590.3,234.7z"/>
<path class="st14" d="M465.5,238.1c26.3-6,53.8-5.1,80.5-2.3c-8.4-0.5-16.8-0.5-25.1,0.5c2.4,6.5,8.1,10.8,14.4,13.2
	c17.3,7.6,37.4,1.5,54.5,10.2c-3.3,11.2-16.3,12.9-26.2,13.5c-14.9,0.6-29.8,0.8-44.7,0c-24.1-5.6-45-19.3-67.6-28.7
	C455.6,241.7,460.3,239,465.5,238.1L465.5,238.1z"/>
<path class="st14" d="M592.9,251.3c13.2-6.4,28.1-8.8,42.7-8.8c6.7-0.2,11.7,4.9,17.7,7.3c5,0.5,10.1-0.3,15.2-0.7
	c-1.5,0.9-4.4,2.6-5.9,3.4c-8.6,4.4-15.8,10.9-23.2,16.9c0.4-3.1,0.7-6.2,1.1-9.2c-7.3,0.8-14.4,2.4-21.6,3.6
	C610.6,258.8,601.3,255.9,592.9,251.3L592.9,251.3z"/>
<path class="st11" d="M639.3,269.5c7.5-6,14.6-12.6,23.2-16.9c4,1.4,8,3.3,11.8,5.5c-10.7,19.4-26.5,37.7-48.3,44.7
	c-11.6,2.3-19.3-9.5-23.8-18.4c-2.8-10.1,9.3-16.2,16.6-20.3c7.2-1.2,14.3-2.8,21.6-3.6C640,263.3,639.7,266.4,639.3,269.5
	L639.3,269.5z"/>
<path class="st11" d="M449.5,269.4c13.5-4.5,28.8-5.2,42.3-0.2c5.9,4.6,8.2,12.2,11.5,18.7c2.6,7.7,3.8,15.9,3,24.1
	c-8.7-1.4-16.1-6.9-24.8-8.1c-13.6-2.6-27.2,0-40.8,1.1C435,292.7,439.2,277.9,449.5,269.4L449.5,269.4z"/>
<path class="st11" d="M518.9,273.2c14.9,0.8,29.8,0.6,44.7,0c-1.1,0.8-3.3,2.4-4.4,3.2c2.2,2,4.6,4,7.1,5.9
	c6.5,4.8,13.2,9.9,17.7,16.8c-19.9,3-39.8,6.4-59.8,7.1c-8.9,1.9-10.4-8.8-9.2-15.1C516.2,285.1,517.6,279.2,518.9,273.2
	L518.9,273.2z"/>
<path class="st10" d="M1219.6,363.6c3.4,0.1,6.7,0.8,10,2.3c-6.7,15.3-13.3,30.9-13.2,47.9c-1.1,3-2.2,6-3.3,9.1
	c-3.5,8.2-4.8,17.2-5.8,26.1c-2.8,10.2-2.7,20.8-2.9,31.3c-10.6-3.6-20.4-8.9-31-12.2c-1.5-15.3,4.9-29.9,11.9-43
	c5.3-10.4,14.9-17.3,22-26.4c-8.5,1.8-14.6,8.3-21.6,12.8C1191.8,392.9,1200,371.8,1219.6,363.6 M1192.8,427.2
	c-3.7,9.3-7,19.1-7.5,29.2c-1,7.3,5.6,14.7,13,14.5c4.2-14.6-0.7-29.7-3.4-44L1192.8,427.2L1192.8,427.2z"/>
<path class="st11" d="M1233.6,395.4c12.8-15.1,29-29.2,49.1-32.7c-13.5,15.6-25.9,33.7-45.4,42.4c-1.5,0.4-4.4,1.2-5.9,1.6
	C1230.1,402.7,1230.3,398.5,1233.6,395.4L1233.6,395.4z"/>
<path class="st11" d="M1175.6,366.9c5.8-4.6,8,4.6,9,8.7c-10.2,15.7-22.9,31.4-24.4,50.8c-0.5,15.4,0.9,30.8,0.5,46.2
	c0.1,2.7-1.1,4.7-3.5,6.1c-7-13.1-14.7-25.8-20-39.6c-2.4-4.9,0.9-9.8,2.4-14.4C1148.4,403.9,1157.9,381.9,1175.6,366.9
	L1175.6,366.9z"/>
<path class="st2" d="M1229.6,366c4.8,1.9,8.9,5.2,12.5,9c-9.6,12.3-20,24.1-25.7,38.9C1216.3,396.8,1222.9,381.3,1229.6,366z"/>
<path class="st16" d="M1279.3,399.8c13.9-18.6,41.5-26.1,63-16.9c-2.6,9.3,6.6,16.9,7.8,26c-9.7-2.7-19.2-6.1-28.5-9.9
	C1309,389.9,1293.2,399.7,1279.3,399.8 M1303.4,392.4c10.2,0.1,20.4,1.2,30.6,3.1c0.7-4.2-2.6-7.6-6.7-7.5
	C1319.3,387.4,1309.6,386.3,1303.4,392.4L1303.4,392.4z"/>
<path class="st1" d="M1256.6,430.5c3-16.6,1.7-37.9,19.1-47.1c-6.8,17.5-10.4,36.1-11.3,54.8c1.2,15.7,10.2,29.6,19.3,41.9
	c9.3,2.2,22.3-3.6,28.3,7c-1.6,5-4,9.7-5.8,14.6c7.3-0.2,14.7-0.1,21.9,1.6c-9,2-25.8-1.7-27.6,10.6c9.8,1.1,19.9,1.4,29.6-0.8
	c2.8-1.5,8.3-1,9-4.8c-2.9-1.8-5.8-3.4-8.6-4.9c6.2-1.9,12.6,0.2,14.9,6.7c-17.4,11.4-39.4,9.5-57.9,2c-4-3.4-6.2-8.2-9.6-12
	c-6.8-4-15.3-6.4-18.6-14.2c-5-10.2-12.3-19.1-22.7-24c-0.6-1.5-1.8-4.5-2.4-6.1c-0.2-14.2,1.9-29.4,9.3-41.6
	c0.6,27.3,11.2,55.1,32.6,72.8C1270.9,467.6,1250.1,452.1,1256.6,430.5 M1277.2,491.5c8.6,1.7,17.3,3.3,26.1,4.2
	c3.6-3.6,5.6-9.8-0.1-12.5C1294.6,481.4,1280.3,481.3,1277.2,491.5L1277.2,491.5z"/>
<path class="st1" d="M1350.1,408.9c-1.2-9.1-10.4-16.6-7.8-26c3.1,1.7,6.1,3.9,8.8,6.4c-1.6,7.3,3.2,13.4,6.2,19.7
	c3.9,7.3,6.4,15.4,10.5,22.6c1.3,0,4,0.1,5.3,0.1c0.2-3.9,0.2-7.7,0.1-11.4c2,3,4,6,6.7,8.7c8.3,2.4,19.2-0.2,25.2,7.6
	c4.1,12.9-5.4,24.8-6.1,37.6c5.6,3.4,12.6,4.9,16.9,10.3c-3.9-1-7.8-2.4-11.5-3.9c2.4,6.1,3.1,12.6,2.6,19.1c2.3-0.1,4.6-0.2,7-0.1
	c1.4,2.3,2.9,4.7,4.3,7.2c5.1,6.6,12.1,16,4.9,23.9c-5.4,6-16.1,17.2-23.7,9.7c-1.9-10,1.3-19.8,2.7-29.6
	c-5.5-0.4-11.2,0.7-16.5-0.8c-5.1-6.7-0.7-14.6,0.9-21.6c-8.4,4.7-13.2,13.3-19.8,20c-0.8,0.7-2.5,2.2-3.3,2.9
	c-1.1-0.4-3.2-1.1-4.2-1.5c2.2-13,9.2-24.7,11.2-37.7c-7.5,4.3-14.1,10.2-21.9,14.1c-9.1,4.5-19.5,4-29.2,2.9
	c-1.1-6.6,6.7-4.7,10.8-6.2c10-1,21.2-9.2,19.1-20.3c-1.4-5.7-0.8-14.6-6.2-17.5c-6.4,7.6-8.8,21.9-20.2,23.1
	c-1.9-7.7-2-16.7-8.7-22c-5.7-6.3-14.4-7.3-22.1-9c9.9-10.1,24.2-6.1,36.6-4.6c-10.4-13.2-29.8-4.9-44.1-6
	c4.5-8.5,15.2-8.5,23.4-10.9c14.7-4.3,29.3,2.3,41.8,9.7c-2.6-3.3-4.9-7.2-8.9-8.8c-16.5-7.6-35-6.7-52.6-8.8
	c9.5-7.4,22.2-6.9,33.5-8.6C1330.9,402.7,1340.4,406.1,1350.1,408.9 M1352,438.1c2.9,9,6.5,17.7,9.6,26.7
	c5.1-1.7,10.9-5.1,11.3-11.1c7.5,9.6,1.8,21.5,0.1,32c6.9-2.6,8.2-12,10.8-18.3c4.2-11.4-1.5-26.5-14.3-28.8c0,2.3,0,6.9,0,9.2
	C1364.5,443.2,1358.8,438.9,1352,438.1 M1390.6,459.2c-2.4,5.7-4.3,14.1,2.3,17.8c3.2-11.7,12.1-25.9,4.2-37.3
	C1393.1,445.3,1393.3,452.8,1390.6,459.2 M1409.6,509.4c2.3,7.3,3.1,14.9,3,22.6c1.3-0.1,3.9-0.2,5.2-0.2
	C1429.5,524.9,1420.1,510.8,1409.6,509.4L1409.6,509.4z"/>
<path class="st3" d="M1303.4,392.4c6.2-6.1,15.9-5,23.9-4.5c4.1-0.1,7.3,3.3,6.7,7.5C1323.8,393.6,1313.6,392.5,1303.4,392.4
	L1303.4,392.4z"/>
<path class="st13" d="M1357.3,409c-3-6.3-7.8-12.4-6.2-19.7c9.9,8.3,16.1,19.7,22.1,31c0.1,3.8,0,7.6-0.1,11.4c-1.3,0-4-0.1-5.3-0.1
	C1363.7,424.4,1361.2,416.4,1357.3,409L1357.3,409z"/>
<path class="st12" d="M1231.4,406.8c1.5-0.4,4.4-1.2,5.9-1.6c-5,12.1-15,22.4-15,36.1c-0.4,9.3-0.1,19.6,5.8,27.3
	c2.2-4.2,4.2-8.5,6.1-12.8c0.6,1.5,1.8,4.5,2.4,6.1c-0.3,7.6,2.1,15,1.3,22.7c-5.2-1.7-10.4-3.3-15.6-4.8
	c-10.8-6.4-9.8-20.7-15.1-30.8c1.1-8.9,2.3-17.8,5.8-26.1C1219.8,418.2,1226,412.9,1231.4,406.8L1231.4,406.8z"/>
<path class="st3" d="M1192.9,427.1l2.1-0.3c2.7,14.4,7.6,29.5,3.4,44c-7.4,0.2-14-7.2-13-14.5
	C1185.9,446.2,1189.2,436.5,1192.9,427.1L1192.9,427.1z"/>
<path class="st6" d="M1352,438.1c6.8,0.8,12.5,5.1,17.4,9.6c0.9,1.5,2.6,4.5,3.5,6c-0.4,6-6.1,9.5-11.3,11.1
	C1358.5,455.8,1354.9,447.1,1352,438.1L1352,438.1z"/>
<path class="st2" d="M1369.4,438.5c12.8,2.3,18.5,17.4,14.3,28.8c-2.5,6.3-3.9,15.7-10.8,18.3c1.7-10.5,7.4-22.4-0.1-32
	c-0.9-1.5-2.6-4.5-3.5-6C1369.4,445.4,1369.4,440.8,1369.4,438.5L1369.4,438.5z"/>
<path class="st17" d="M1276.8,441.1c9.7-3.8,16.1,5.2,21.5,11.6c4.8,6.1,11.6,12.3,10.7,20.8c-4.5,0.2-8.9,0.4-13.3-0.3
	C1287.2,464.6,1277.5,453.7,1276.8,441.1L1276.8,441.1z"/>
<path class="st18" d="M1390.6,459.2c2.6-6.4,2.5-13.9,6.5-19.6c7.9,11.4-1,25.6-4.2,37.3C1386.3,473.3,1388.2,464.9,1390.6,459.2z"
	/>
<path class="st14" d="M1174.1,474.3c21.4,6.3,38.9,21.9,54.4,37.6c-4.7,6.7-2.9,15.1,1.3,21.6c7.8,14.1,23.4,21.9,29.6,37.1
	c-11.7,6.4-22.8-3.9-31.9-10.1c-8.4-7.9-17.1-15.6-25.5-23.4C1189.3,517.8,1182.2,495.7,1174.1,474.3L1174.1,474.3z"/>
<path class="st14" d="M1217.4,480.3c1.2-0.1,3.7-0.4,4.9-0.5c5.2,1.5,10.4,3.1,15.6,4.8c11.9,7.1,24.9,14.8,30.2,28.5
	c-6.9-2.4-13.9-4.3-21.1-5.7c14.7,10.4,28.2,27,47.9,25.9c5.8,0.4,12.6-2.4,17.6,1.7c7.3,4.9,10.4,13.6,15.4,20.5
	c7.5-4.5,13.1-11.7,21.3-15.1c3.4-0.9,8.4-3.8,10.7,0.5c-1.2,4-2.8,7.8-4,11.9c11.9-0.4,23.9-2.1,35.9-2.2c-3.6,3.2-6.4,7.7-11,9.7
	c-18.6,1.4-38.4,0-55.9,7.1l-1.9-0.8c-5.7-3.4-12.2-5.7-16.8-10.5c-2.5-5.3-2-11.4-3-17c-10.2,2.7-21.4,6.2-31.5,0.9
	C1247.8,526.8,1228.1,505.4,1217.4,480.3L1217.4,480.3z"/>
<path class="st3" d="M1404.5,480.5c3.7,1.4,7.5,2.9,11.5,3.9c1.4,7.4-0.3,15.1,2.4,22.3c-1.4-2.5-2.9-4.9-4.3-7.2
	c-2.4,0-4.7,0-7,0.1C1407.6,493.1,1406.9,486.6,1404.5,480.5L1404.5,480.5z"/>
<path class="st2" d="M1277.3,491.5c3-10.2,17.4-10.1,26-8.2c5.7,2.7,3.6,8.9,0.1,12.5C1294.6,494.8,1285.9,493.2,1277.3,491.5
	L1277.3,491.5z"/>
<path class="st11" d="M1129.7,509.6c-0.8-14,14.6-19.2,25.9-20.8c10.6,6.5,21.8,13.4,28.1,24.7c4.2,6.5,0.3,14.2-1.3,21
	c-3.7,7.5-7.6,15.1-13.6,21.1c-5.3-8.8-9-18.6-16.1-26.2C1146.1,521.5,1137.4,516,1129.7,509.6L1129.7,509.6z"/>
<path class="st2" d="M1300.5,513.8c1.8-12.3,18.6-8.6,27.6-10.6l2.3,0.1c2.9,1.5,5.7,3.1,8.6,4.9c-0.6,3.8-6.2,3.3-9,4.8
	C1320.4,515.3,1310.3,515,1300.5,513.8L1300.5,513.8z"/>
<path class="st3" d="M1246.9,507.4c7.1,1.4,14.2,3.3,21.1,5.7c1.4,2.6,2.8,5.1,4.5,7.6c12,0.9,24.4-0.8,36.1,3.2
	c10.4,2.7,18.6,9.9,28.2,14.4c5.9-1.9,11.6-4.4,17.5-6.6c3.2-1,6.4-2,9.7-2.9c10.8,1.9,21.1,5.7,32,7.6c0.6,1.8,1.8,5.3,2.4,7.1
	c-2,2.5-4.1,4.9-6.5,7.1c-12,0.2-24,1.8-35.9,2.2c1.2-4,2.8-7.9,4-11.9c-2.3-4.3-7.3-1.4-10.7-0.5c-8.2,3.4-13.8,10.6-21.3,15.1
	c-5.1-6.9-8.1-15.6-15.4-20.5c-5.1-4.1-11.8-1.3-17.6-1.7C1275.1,534.4,1261.6,517.8,1246.9,507.4L1246.9,507.4z"/>
<path class="st4" d="M1363.5,511.2c0.8-0.7,2.5-2.2,3.3-2.9c4.3,0.3,8.8,0.5,12.6,2.9c3.7,10.7-7.7,14.9-15.6,17.6
	c-3.3,0.9-6.5,1.9-9.7,2.9c-0.6-2.7-0.9-5.5-0.9-8.2C1356,518.9,1359.8,515.1,1363.5,511.2L1363.5,511.2z"/>
<path class="st19" d="M1409.6,509.4c10.6,1.4,20,15.4,8.2,22.4c-1.3,0.1-3.9,0.2-5.2,0.2C1412.7,524.3,1411.9,516.8,1409.6,509.4
	L1409.6,509.4z"/>
<path class="st3" d="M1229.8,533.6c-4.3-6.5-6-14.9-1.3-21.6c11.9,11.3,23.6,23.1,31.3,37.8c1.9,4.5,4.9,8.4,9.8,10.2
	c14.6,6.6,27.9,15.8,42.8,21.9c2.8-3.6,5.1-7.6,7.7-11.3c0.7-1,2.2-2.9,2.9-3.9l1.9,0.8c0.9,8.4,0.7,16.9,2,25.4
	c6.4,1.3,12.9,1.2,19.3,2.1c-0.2,1.2-0.7,3.6-1,4.9c-7.7,4.4-15,9.8-23.6,12.2c-0.9-0.5-2.8-1.6-3.7-2.1c-9.7-7-9.6-21.1-20-27.2
	c-9.2-6.5-19-13.2-30.3-14.6c-2.8,0.8-5.5,1.7-8.2,2.7C1253.2,555.4,1237.6,547.6,1229.8,533.6L1229.8,533.6z"/>
<path class="st11" d="M1188.8,544.8c4.4-2.6,8.8-5.1,13.2-7.7c8.4,7.9,17.1,15.5,25.5,23.4c-0.1,11.4,3.8,22.3,3.9,33.7
	c-9.8-4.5-18.2-11.5-27.1-17.4c-8.2-5.7-16.9-11-23.1-18.9C1181.8,552.7,1185.8,548.8,1188.8,544.8L1188.8,544.8z"/>
<path class="st12" d="M1259.7,549.7c1.8-0.6,5.5-1.9,7.3-2.6c15.3,12.3,35.1,16,53,23.3c-2.6,3.8-4.9,7.7-7.7,11.3
	c-14.9-6-28.2-15.3-42.8-21.9C1264.6,558.1,1261.6,554.2,1259.7,549.7L1259.7,549.7z"/>
<path class="st11" d="M1390,563.6c8-5.8,17.3-10.8,27.6-10.4c3.7,14.1-12,20.4-22.3,24.7c-15.7,4-13.3,27.5-29.9,30.1
	c-7,2.7-11.9-4.8-14-10.3C1362.5,584.6,1376,573.6,1390,563.6L1390,563.6z"/>
<path class="st14" d="M1267.6,568c11.3,1.5,21.1,8.1,30.3,14.6c10.4,6.1,10.4,20.3,20,27.2c-9.2-1.3-18.6-0.8-27.8-0.5
	c1.2-2.7,2.6-5.3,3.8-8c-5.6-3.5-11.5-6.4-17.1-9.9C1274.5,583.3,1271.3,575.5,1267.6,568L1267.6,568z"/>
<path class="st11" d="M1254.4,593.3c6.6-4.6,14.9-2.6,22.3-1.7c5.6,3.5,11.5,6.4,17.1,9.9c-1.2,2.7-2.6,5.3-3.8,8
	c9.2-0.3,18.6-0.9,27.8,0.5c0.9,0.5,2.8,1.6,3.7,2.1c-1.1,0.3-3.3,1-4.3,1.4c0.9,2.9,2.1,5.7,3.2,8.6c-16.5,5.8-34.6,8.2-51.9,5
	c-5.8-1.4-12.7-3.1-15.6-8.8C1250.8,610,1250.7,600.8,1254.4,593.3L1254.4,593.3z"/>
<path class="st20" d="M1227.6,657.8c1.5-2.2,3.5-3.7,5.9-4.5c1.7,2.6,3.9,4.8,6.7,6.4c9.6-2,19.5-3.5,29.3-1.7
	c-0.7,2.7-1.3,5.5-1.9,8.4c4.4-0.1,8.9-2.4,13.2-0.9c2.8,2.6,5.3,5.5,8.4,8.1c8.7,1.4,17.5,2.6,25.6,6.4c0,1.2,0,3.5,0.1,4.6
	c-1.1,0.1-3.2,0.2-4.2,0.2c-10.6-5.9-23.8-4.8-33.3-12.7c-4.8-4.5-11.5-1.9-17.2-2.3c0.8-2.9,1.1-5.8,1-8.7
	c-8.6-0.3-17.1,1.8-25.7,2C1232.7,661.5,1230.1,659.6,1227.6,657.8L1227.6,657.8z"/>
<path class="st21" d="M1197.9,661.9c1.7-1,5.2-3,6.9-4c3.3,1.1,6.1,3.1,9.3,4.7c2.7-0.5,5.5-1.1,8.3-1.8
	C1217.1,671,1205.8,664,1197.9,661.9L1197.9,661.9z"/>
<path class="st22" d="M1222.4,660.8c0.8-0.8,2.3-2.5,3.1-3.3l2,0.3c2.5,1.9,5.1,3.7,7.9,5.5c8.6-0.3,17-2.3,25.7-2
	c0.2,2.9-0.2,5.8-1,8.7c5.7,0.4,12.5-2.2,17.2,2.3c9.5,7.9,22.7,6.7,33.3,12.7c-4.7,3.4-10.7,4.5-16.3,5.1c-3.4-0.5-5.6,2.4-7.7,4.5
	c2,2.6,4.2,5.2,6.2,8c-2.1,2.5-4.5,4.9-6.5,7.6c0.1,3.5,0.7,7,1,10.6c-2.6,3.6-5.9,6.6-8.4,10.3c0.4,2.5,1.1,5,1.5,7.6
	c-2.3,2-4.8,3.8-7,5.9c-0.7,2.9-0.8,5.9-1.2,8.9c-6.1,6.1-13.7,11.3-13.3,20.9c-7.6,5.8-10.9,14.3-14.6,22.8
	c-9.1,7.2-21.6,7.6-32.7,8.3c-2.7-0.7-4.3,1.4-5.7,3.3c-13-0.5-25.1,6-38.2,4.7c1.4-9.3,13.8-7,18.1-13.4c-7.4-2.1-15-3.4-22.1-6.4
	c11.9-5.2,25.9-1.9,37.7-7.9c-11.6-1.4-23.9,0.8-34.8-4.2c5.7-3.9,14.5-3.8,18.9-8.9c-9.8-3.2-21-2.5-29.7-8.6
	c15.1-2.3,30.5-0.6,45.7-1.2c-10.1-4.6-21.3-6.4-31.1-11.7c9.9-12.4,25.2-1.7,37.2,0.6c-4.8-5.2-11.6-8.7-15.2-14.8
	c3.6-2.7,7.4-5.2,11.8-6.4c9.7,3.8,17.7,10.9,27.2,15.4c-6.3-8.5-15.5-13.8-22.6-21.4c2.3-3.4,5.5-8.2,10.4-6.8
	c8.9,4,15.4,12.1,24.4,16.1c-5-7.8-14.1-12.5-18-20.9c14.2-8.3,31.9-9.2,45.3-19c-15.1-0.5-28.3,7.2-42.2,11.6
	c-1.7-5-2.3-10.5-5.3-14.8c-0.6,5.9-0.5,12-1.2,17.9c-13.6,7.5-26.3,17.8-41.4,22.3c1-4.6,1.7-9.4,4.6-13.2
	c6.2-3.6,13.2-5.8,18.6-10.7c-4.9,0.4-9.8,1.1-14.6,1.7c4.1-8.8,9.1-17.3,12.2-26.6c-6.8,4.1-12.3,14.7-21.4,10.3
	c1.4,7.5,3.6,16.3-2.2,22.7c-2.1,0.7-4.1,1.4-6.1,2.1c0.6,6.3,1.3,13.3-3.9,18.1c-6.9-0.4-13.6-1.7-20.2-3.3
	c2.1-12.4,10.3-22.6,14.4-34.3c-4.2,1.6-8.3,3.5-12.4,5.2c6-13.2,10.4-30.9,27.5-33.1c2.4,2.3,4.6,5,7.2,7.5c3.2-0.2,4.7-4.2,7-6.1
	l-2.4-0.5c2-3.6,4.5-7.4,8.6-8.9C1205.8,664,1217,671,1222.4,660.8L1222.4,660.8z"/>
<path class="st17" d="M1288.9,763.6c4.1-5.4,8.4-15.8,16.1-14.3c-2.3,9.7-11.8,14.7-16,23.4c-2.3,6.6-0.9,13.8-2.8,20.4
	c-2.6,1.7-5.1,3.5-7.5,5.3c-1,2.7-2,5.4-2.8,8.3c-2.7-0.2-5.4-0.3-8.1-0.4c-3.7,11-4.3,22.8-7.3,34c-3.7,1.7-9.6,1.2-10.9,6
	c-3.3,5.9,6.1,9.7,4.8,15.3c-3.3,0.8-6.6,1.5-9.8,2.2c-4.6-6.5-7.7-14.1-8.5-22c2.5-3.3,6.3-5,9.4-7.6c-0.2-6.6-2.1-13-2.9-19.4
	c2.4-2.2,5.4-3.6,8.8-4.2c2.9-8.9,2.2-21.1,10.1-27c2.7,1,5.4,2.1,8.2,3.3c1.1-4.1,0.3-8.8,2.8-12.3
	C1278.6,771.7,1286.4,770.7,1288.9,763.6L1288.9,763.6z"/>
<path class="st22" d="M1305,749.3l1.9-0.5c-1,7.7-1.6,15.6-2,23.4c-0.5,2.8-1.6,6.2,1.7,7.9c2.9-1.1,5.7-2.3,8.6-3.3
	c2.4,3.7,4.2,7.9,6.9,11.5c3.5-0.1,7-0.4,10.7-0.3c5.2,8.2,3.6,19.2,9.7,27.2c5,6.3,12.8,9.4,18.6,14.9c-0.6,4.8-1.9,9.6-2.9,14.4
	c3.6-1.1,7.1-2.3,10.8-3.1c6,6.3,7.9,15.5,14.3,21.6c3.3,1.1,6.7,1.5,10.2,2.2c-2.6,14-5.7,28.1-5.6,42.5
	c-1.2,7.4-0.1,18.6-8.9,21.5c-1.4-6.1-2.1-12.2-3.3-18.2c-6.7,4.5-9.9,12.2-15.1,18.1c0.8-12.4,4.4-24.3,5.8-36.6
	c-7.1,9.5-9.7,21.6-17.5,30.7c-0.8-8.1-0.7-16.3-0.9-24.3c-6.5,9.2-11.4,19.6-20.1,27c2.4-13.6,9-25.9,12.2-39.2
	c-8.2,6.2-13.6,15.1-21.4,21.6c-7.8-13.5,5.7-23.9,12.5-34.1c-6.2,2.7-12.1,6.1-18.3,8.6c-1.4-4.4-2.6-8.8-2.6-13.4
	c6.8-9.5,18.8-13.1,26.5-21.7c-11.6,3.6-20.9,12.6-33.1,14.7c-0.3-5.1-3.7-12.3,2.3-15.2c9-6,19.6-9.7,27.5-17.3
	c-11.6,3.5-21.6,10.4-33.1,14.2c-2-18,0-36.1-0.8-54.1c-8.7,14.4-3.3,32.2-5.6,48.1c-7.1-1.2-13.9-3.3-20.8-4.9
	c5.4,5.5,13.2,6.9,20.2,9.4c4.9,15.2,7.9,31.1,9.9,47c-4.9-1.5-10.6-3-12.9-8c-2.2-7.1-1.6-14.7-2.7-21.9c-3,4.6-4,10.1-5.7,15.3
	c-8.4-7.6-14.6-17.4-23.8-24c2.3,7.3,6.2,13.9,9.6,20.8c-2.9,2-7,2.5-8.8,5.7c10.3,0.5,22.4,1,27.2,12.1c-3.2,2-6.5,3.8-9.8,5.7
	c9-0.8,21.7-1.9,24.7,9.3c-2.6,6.2-6.2,12-10.3,17.4c-12-7-19.6-19.4-31.4-26.8c1.6,5.4,3.4,10.7,5,16.1c-9-6.1-15.5-15-24.1-21.6
	c-9.3,11.1,2.1,24.1,8.8,33.3c3.7,3.3,3.3,10.1-2.1,11.3c-9.8-11.8-14.1-28.2-10.6-43.2c1.6-8.2,1.5-16.6,1.1-24.9
	c1.7-0.7,5.2-1.9,6.9-2.6c3.3-0.7,6.5-1.4,9.8-2.2c1.3-5.5-8.2-9.4-4.8-15.3c1.4-4.8,7.2-4.3,10.9-6c2.9-11.2,3.5-23,7.3-34
	c2.6,0.1,5.4,0.2,8.1,0.4c0.9-2.8,1.8-5.6,2.8-8.3c2.4-1.9,4.9-3.6,7.5-5.3c1.9-6.7,0.5-13.9,2.8-20.4
	C1293.2,764.1,1302.7,759,1305,749.3L1305,749.3z"/>
<g>
	<path class="st23" d="M374.3,233.1c2.2,6.8,3,14.3,6.5,20.7c16.3,5.6,34,11.1,45.1,25.3c-1.6,7.8-4.9,15.5-4.2,23.7
		c0.6,8.3,5.7,15.7,12.5,20.5c6.1-1.8,12.2-4.1,17.9-7.1c-0.7-1.1-2-3.4-2.6-4.5c17.5-6.2,35.2,2.8,51.1,9.4
		c13.9,0.3,26.7-9.8,41.1-7.9c12.6,1.9,25.6,5.1,38.2,0.8c7.5-1.7,11.6-8.7,17.3-13.3c9.2,1.4,17.2,6.8,26.3,8.9
		c13.2-5.2,26.9-10.6,37.4-20.5c10.6-8.9,22-17.3,29.4-29.2c-1.1-5.4-5.8-8.9-8.6-13.3c18.5-8,34.3-25.2,35.2-46
		c1-7.5-3.7-13.7-5.1-20.6c5.6-11.9,14.7-25,9.9-38.6c-4-9-15.3-6-23-6.6c0.3-7.8,2.7-16.1-1.4-23.3c-3.3-6.2-10.3-8.6-16.4-10.8
		c-10.9-3.1-16.6-13.8-26.2-19.1c-6.3-4.2-14.1-1.6-21.1-2.6c-6.6-12.9-12.3-27.2-24.4-35.9c-11.6-6.1-23.7,1.2-34,6.2
		c-5.8-2.6-10.1-7.6-15-11.3c-5.8-6-14.7-3.6-21.9-5.4C521.7,28,505,23.5,488.2,20c-1.3,0.1-3.9,0.4-5.1,0.5
		c-6.7,9.5-11.7,19.9-16,30.7c-7.8-0.8-15.1-8.9-22.7-6.1c-7.8,15-13,31.3-20,46.7c-3.8,0.2-6.2-3.4-9.2-5
		c-7.2-5.7-16.2-8.4-25.2-9.1c-0.2,18-6.7,35-8.8,52.8c-6.7,2.4-12.3-3.8-18.6-4.9c-2.8,22.2-6.5,44.8-2.1,67.1
		C362.9,206.8,370.6,219.3,374.3,233.1L374.3,233.1z M695.4,152.1c2.3-5.7,10.4-12.7,14.9-4.9c3.9,10.7-3,20.9-7.2,30.4
		c-6.4,12.9,8.5,28.4-2.1,40.3c-4.7,6.6-14,3.4-19.5-0.1C683.9,195.6,685.1,172.3,695.4,152.1L695.4,152.1z M374.5,152.6
		c6.6-3.2,11.5,4.3,12.8,9.9c4.6,17.8,5.4,37.6,16.9,52.8c6.9,11.1,18.9,17.2,27.2,27c-4.8-21.6-15.3-42.1-12.3-64.9l2.6-0.9
		c0.1-8,1.6-15.9,2.3-23.9c-9.6,8.2-7.3,22-8.9,33.2c-6.4-12-8.7-25.8-12.2-38.8c-3.3-11.3,0.9-22.8,4.9-33.3
		c1.4-0.4,4.1-1.1,5.5-1.4l-0.4-2.2c5.2-3.1,11.7-2.4,17.5-3.1v2c1.3,17.6,2.6,35.5,9.1,52.2c2.5,4.7,2,10.9,5.9,15.4
		c0.5-10.1,0.6-20.1,0.5-30.1c-7.6-2.5-6.2-11.9-7.3-18.1c-1.2-22.7,2-47.4,15.7-66.1c0.2,16-0.5,32,0.1,48c0.5,9.3-1.1,18.5-5.1,27
		l1.8,1c0.6,23.1,10.8,46.8,31.2,59c2.7,1.4,7.7,5.6,9.3,0.5c-3.1-4.2-6.7-7.9-9-12.5l2.7,0.3c-12.2-12.5-20.2-28.6-24.9-45.1
		c10.1,12.3,23.1,21.9,36.9,29.7c13.5,5.7,28.1,8.4,42.4,11.7c-0.4-1-1.3-3.1-1.7-4.1c-14.9-6.4-30.7-10.8-45.1-18.1
		c-7.1-8.3-11.8-18.2-18.1-27.1c-10.6-12-15.9-27.7-13.3-43.6c6.5,8.4,7,19.8,13.6,28.3c9.4,11.8,13.9,27.6,27.1,36.1
		c12.6,8.2,27.4,12.7,42,15.8c5-7.6,11.5-15.2,21.4-15.5c8.7,1.7,5.6,14.3,11.9,17.2c3.6-3.9,6.5-8.4,10.7-11.7c2-0.2,6-0.6,8-0.8
		c2.2-2.5,3-6.5,6.3-7.7c2.7,0.6,5.3,1.6,7.9,2.9c-0.9,16.1-16.6,27.5-30.6,32.7l0.3,2c-8.3,7.9-19.7,5-28.8,0.7
		c-4.3,1.4-8.2,3.8-12.6,4.9c-9.5-0.2-18-5.3-27.1-7.4c-8-0.7-16.1,0.6-24.1,0.3c6.4,10.2,17.7,12.9,28.1,17.3
		c15-1.9,31.2-2.2,44.8,5.3c8.2,1,12.3-6.9,17.8-11.3c13.2-11.2,30.8-15.7,47.8-14.9c5.2-4.7,5.7-12.9,10.4-18.2
		c-10-2.9-5.5-14.8-9.4-22.2l-2.8,0.5c-7.9-11.8-10.1-26.6-19-37.7c-3.6,7.9-3.7,16.9-7.3,24.9c-4.1,9.7-12.6,18.6-23.4,19.9
		c3.3-8.8,12.7-14.9,12.6-24.9c1.9-14-12.7-23.5-24.2-27.1c1.3,11.1,5.8,22.2,3,33.6c-7.9-2.5-12.4-11.6-21.2-12.8
		c-10.3-2.9-20.2,1.8-29.2,6.4c1.5-14.2,13.3-23.1,25.7-27.8l0.5-2.6c-20-2.7-29.3,18.7-41.7,30.2c-1.2-14,9.4-23.7,15.1-35.4
		C525.4,79.2,540,75,554,76.1c-6.2-7.8-17.3-3.1-24.8,0c-14.5,5.7-25.3,17.4-38.3,25.4c2.8-11.9,10.9-21.4,18.7-30.4
		c-17.3,4.2-23.8,23-33,36.2c-0.7-20.6,5-42.8,19.8-57.8c4.6-5.7,13.2-4.9,17.7-10.7c7.1,0,16.8-2.6,22.4,2.5
		c10.6,1.6,20,7.2,29.3,12.3c5.1,1.6,10.1,3.9,15.3,5.2c8-4.7,16.6-12.9,26.5-8.3c12,9.5,13.7,26.2,22.2,38.2
		c8.9-0.8,20.6-5.8,27.1,3.2c0.9,1,2.6,3.1,3.5,4.1c5.2,11.2,18.8,9.3,26.8,16.8c0.6,1.1,1.9,3.2,2.6,4.2l2.4,0.3
		c1.1,10.5,0.1,24.3-11.4,28.8c0.1,2.2,0.2,6.5,0.2,8.7c0.2,5,0.3,10.1-0.6,15.1c-6.5,7.9-16.8,11.4-23.1,19.6
		c-5.8,7.5-13.2,13.8-17.8,22.2c7.3,5.7,12.1,14.2,20.1,19c7.1-2,12.2-13.2,20.2-8.5c-2.7,8.1-6.5,15.8-7.7,24.4
		c-1,0.7-2.8,2-3.8,2.7c-1.5,0.9-4.4,2.6-5.9,3.4c4,1.4,8,3.3,11.8,5.5c-10.7,19.4-26.5,37.7-48.3,44.7
		c-11.6,2.3-19.3-9.5-23.8-18.4c-2.8-10.1,9.3-16.2,16.6-20.3c-8.2-5.1-17.5-8-25.9-12.6c-0.6,1.6-1.7,4.8-2.2,6.3
		c5.3,2.8,3.1,11.8,0.3,15.9c-7.5,4.7-16,7.7-24.7,8.9c6.5,4.8,13.2,9.9,17.7,16.8c-19.9,3-39.8,6.4-59.8,7.1
		c-8.9,1.9-10.4-8.8-9.2-15.1c-4.1-0.7-8.2-1.2-11.7-3.2c2.6,7.7,3.8,15.9,3,24.1c-8.7-1.4-16.1-6.9-24.8-8.1
		c-13.6-2.6-27.2,0-40.8,1.1c-5.7-12.3-1.4-27.1,8.8-35.6c-2.5-3.3-4.6-6.9-5.4-10.8c-17.6-0.4-33.6-8.8-49-16.3
		C381.3,214.8,370.4,183.8,374.5,152.6L374.5,152.6z M509.2,142.6c0.2-2,0.4-5.8,0.5-7.8c15.7-1.6,33.7-0.8,46.7,9.5
		c1.2,6.8-8,10.4-13.6,9.8C531.2,151.8,518.7,149.9,509.2,142.6L509.2,142.6z"/>
	<path class="st23" d="M646,132.8c4,6.2-0.2,13.6,0.9,20.5c8.6-2.9,17.3-5.9,25.4-10.2c0.5-0.9,1.4-2.7,1.9-3.6
		c-3.9-8.1-9.3-15.5-14.7-22.6c-4.6,3.4-7.9,11-14.6,9c-8.9-2.2-9.7-13-15.3-18.9c-1.1,10.7,0,21.6-0.4,32.4
		C633.6,134.8,639.3,127.6,646,132.8L646,132.8z"/>
	<path class="st23" d="M1150.7,539.8c3.6,6.5,6,13.8,10.8,19.7c8.7,6.8,20.2,9.1,28.4,16.8c8.9,8.1,16.5,17.9,26.8,24.5
		c6.4,4.7,14.8,3.3,22.2,4.9c5.4,5.8,8,13.7,13,19.9c23.5,14.1,51.7,9.8,77.6,7.8l1.7-0.2c0.3-4.6,0.4-9.2,0.7-13.7
		c15.7,0.7,32.9,2.6,46.6-7.1c10.1-5.3,14.7-15.9,19.2-25.7c11.6-6.1,25.3-10.8,32.4-22.8c2.8-4.5,1.4-11.4-3.3-13.9
		c-2.3-2.4-7.2-2.7-7.7-6.1c9.1-7.3,20.9-19.4,12.1-31.5c-7.5-8.5-6.1-20-9.1-30.1c-1.8-6.3-8.8-8.1-13.5-11.4
		c0.5-12.5,7.9-25.1,2.7-37.6c-6.9-9.7-19.6-10.2-30.1-12.3c-3.6-7.5-2.6-17.7-10.1-22.8c-15.6-12.4-26-29.9-40.6-43.2
		c-10.3,0.7-20.1,4.1-29.6,7.9c-4.4-5-6.8-11.3-10.3-16.8c-13.6,2.1-25.9,8.9-38.7,13.5c-4.2,2.7-6-3-7.9-5.4
		c-0.2,1.3-0.5,3.9-0.6,5.2c-4.6-5.8-9-15.2-17.5-14.5c-10,4.1-20.8,9.8-25.5,20c6.4-0.2,12.8-0.9,19.3-1.1c3.4,0.1,6.7,0.8,10,2.3
		c4.8,1.9,8.9,5.2,12.5,9c-9.6,12.3-20,24.1-25.7,38.9c-1.1,3-2.2,6-3.3,9.1c6.7-4.7,13-10,18.4-16.2c-1.3-4.1-1.1-8.3,2.2-11.3
		c12.8-15.1,29-29.2,49.1-32.7c-13.5,15.6-25.9,33.7-45.4,42.4c-5,12.1-15,22.4-15,36.1c-0.4,9.3-0.1,19.6,5.8,27.3
		c2.2-4.2,4.2-8.5,6.1-12.8c-0.2-14.2,1.9-29.4,9.3-41.6c0.6,27.3,11.2,55.1,32.6,72.8c-5.1-19.4-25.9-35-19.4-56.6
		c3-16.6,1.7-37.9,19.1-47.1c-6.8,17.5-10.4,36.1-11.3,54.8c1.2,15.7,10.2,29.6,19.3,41.9c9.3,2.2,22.3-3.6,28.3,7
		c-1.6,5-4,9.7-5.8,14.6c7.3-0.2,14.7-0.1,21.9,1.6l2.3,0.1c6.2-1.9,12.6,0.2,14.9,6.7c-17.4,11.4-39.4,9.5-57.9,2
		c-4-3.4-6.2-8.2-9.6-12c-6.8-4-15.3-6.4-18.6-14.2c-5-10.2-12.3-19.1-22.7-24c-0.3,7.6,2.1,15,1.3,22.7
		c11.9,7.1,24.9,14.8,30.2,28.5c1.4,2.6,2.8,5.1,4.5,7.6c12,0.9,24.4-0.8,36.1,3.2c10.4,2.7,18.6,9.9,28.2,14.4
		c5.9-1.9,11.6-4.4,17.5-6.6c-0.6-2.7-0.9-5.5-0.9-8.2c2.7-4.6,6.5-8.5,10.2-12.3c-1.1-0.4-3.2-1.1-4.2-1.5
		c2.2-13,9.2-24.7,11.2-37.7c-7.5,4.3-14.1,10.2-21.9,14.1c-9.1,4.5-19.5,4-29.2,2.9c-1.1-6.6,6.7-4.7,10.8-6.2
		c10-1,21.2-9.2,19.1-20.3c-1.4-5.7-0.8-14.6-6.2-17.5c-6.4,7.6-8.8,21.9-20.2,23.1c-1.9-7.7-2-16.7-8.7-22
		c-5.7-6.3-14.4-7.3-22.1-9c9.9-10.1,24.2-6.1,36.6-4.6c-10.4-13.2-29.8-4.9-44.1-6c4.5-8.5,15.2-8.5,23.4-10.9
		c14.7-4.3,29.3,2.3,41.8,9.7c-2.6-3.3-4.9-7.2-8.9-8.8c-16.5-7.6-35-6.7-52.6-8.8c9.5-7.4,22.2-6.9,33.5-8.6
		c-12.6-9.1-28.4,0.7-42.3,0.8c13.9-18.6,41.5-26.1,63-16.9c3.1,1.7,6.1,3.9,8.8,6.4c9.9,8.3,16.1,19.7,22.1,31c2,3,4,6,6.7,8.7
		c8.3,2.4,19.2-0.2,25.2,7.6c4.1,12.9-5.4,24.8-6.1,37.6c5.6,3.4,12.6,4.9,16.9,10.3c1.4,7.4-0.3,15.1,2.4,22.3
		c5.1,6.6,12.1,16,4.9,23.9c-5.4,6-16.1,17.2-23.7,9.7c-1.9-10,1.3-19.8,2.7-29.6c-5.5-0.4-11.2,0.7-16.5-0.8
		c-5.1-6.7-0.7-14.6,0.9-21.6c-8.4,4.7-13.2,13.3-19.8,20c4.3,0.3,8.8,0.5,12.6,2.9c3.7,10.7-7.7,14.9-15.6,17.6
		c10.8,1.9,21.1,5.7,32,7.6c0.6,1.8,1.8,5.3,2.4,7.1c-2,2.5-4.1,4.9-6.5,7.1c-3.6,3.2-6.4,7.7-11,9.7c-18.6,1.4-38.4,0-55.9,7.1
		c0.9,8.4,0.7,16.9,2,25.4c6.4,1.3,12.9,1.2,19.3,2.1c-0.2,1.2-0.7,3.6-1,4.9c-7.7,4.4-15,9.8-23.6,12.2c-1.1,0.3-3.3,1-4.3,1.4
		c0.9,2.9,2.1,5.7,3.2,8.6c-16.5,5.8-34.6,8.2-51.9,5c-5.8-1.4-12.7-3.1-15.6-8.8c-2.1-8.1-2.3-17.2,1.4-24.8
		c6.6-4.6,14.9-2.6,22.3-1.7c-2.3-8.2-5.4-16-9.2-23.5c-2.8,0.8-5.5,1.7-8.2,2.7c-11.7,6.4-22.8-3.9-31.9-10.1
		c-0.1,11.4,3.8,22.3,3.9,33.7c-9.8-4.5-18.2-11.5-27.1-17.4c-8.2-5.7-16.9-11-23.1-18.9c0.7-5.3,4.7-9.2,7.7-13.3
		c-2.6-3.3-5-6.6-6.5-10.4c-3.7,7.5-7.6,15.1-13.6,21.1c-5.3-8.8-9-18.6-16.1-26.2c-6.6-7.8-15.3-13.2-22.9-19.7
		c-0.8-14,14.6-19.2,25.9-20.8c0.5-3.4,1.1-6.7,1.7-9.9c-7-13.1-14.7-25.8-20-39.6c-2.4-4.9,0.9-9.8,2.4-14.4
		c8.8-21,18.3-43,36-57.9c5.8-4.6,8,4.6,9,8.7c3.2-1.8,6.6-3.5,8.9-6.5c-3.6-5-8.6-12.2-15.7-9.7c-12.1,5.4-23.9,13.9-29.3,26.3
		c-5.8,12.1-8.2,25.4-13.3,37.8c-1.3,4.5-4.3,9.2-2.7,14.1c5,15.3,12.4,30.8,10.6,47.4c-7.1,5.4-17.5,7.7-20.8,16.9
		c-1.8,5.2,2.7,9.1,5.8,12.7C1135.7,522.9,1145.4,529.6,1150.7,539.8L1150.7,539.8z M1298.3,452.7c4.8,6.1,11.6,12.3,10.7,20.8
		c-4.5,0.2-8.9,0.4-13.3-0.3c-8.6-8.7-18.3-19.6-19-32.2C1286.5,437.3,1292.9,446.3,1298.3,452.7L1298.3,452.7z M1389.9,563.6
		c8-5.8,17.3-10.8,27.6-10.4c3.7,14.1-12,20.4-22.3,24.7c-15.7,4-13.3,27.5-29.9,30.1c-7,2.7-11.9-4.8-14-10.3
		C1362.5,584.6,1375.9,573.6,1389.9,563.6L1389.9,563.6z"/>
	<path class="st23" d="M1207.2,449c-2.8,10.2-2.7,20.8-2.9,31.3c-10.6-3.6-20.4-8.9-31-12.2c0,2,0.3,4.1,0.8,6.2
		c21.4,6.3,38.9,21.9,54.4,37.6c11.9,11.3,23.6,23.1,31.3,37.8c1.8-0.6,5.5-1.9,7.3-2.6c15.3,12.3,35.1,16,53,23.3
		c0.7-1,2.2-2.9,2.9-3.9c-5.7-3.4-12.2-5.7-16.8-10.5c-2.5-5.3-2-11.4-3-17c-10.2,2.7-21.4,6.2-31.5,0.9
		c-23.9-13.2-43.6-34.5-54.3-59.6c1.2-0.1,3.7-0.4,4.9-0.5C1211.4,473.5,1212.5,459.1,1207.2,449L1207.2,449z"/>
	<path class="st23" d="M713.8,811.6c-12.2-8.5-21.3-20.8-33.6-29.1c-7.3,2.4-12.8,8.4-20,10.9c-3.4-3.3-5.6-7.9-9.8-10.1
		c-9.5,4.2-17,12.1-26.7,16c-5.5-5.1-6.3-16.3-14.8-17.6c-3.3,3.1-7.1,6.1-8.7,10.5c-1,4.2-2.1,8.3-2.6,12.6
		c1.1,0.6,3.1,1.9,4.2,2.5c3.3-0.6,6.7-1,10.1-1.2c3.1,0.4,5.9,1.7,8.4,3.7c1.1,0.9,3.3,2.6,4.4,3.6c7.8-5.5,14.4-12.7,23.4-16.4
		c-8.1,13.8-15.4,32.9-32.5,37c-1.1-1.1-3.2-3.4-4.3-4.5c-1.8,3.8-3.4,7.7-4.9,11.7c-6,15.1-5.5,31.5-5,47.5
		c-4.7-0.3-9.3-1.1-13.9-0.6c11.6,7,23.1,14.7,32.5,24.7c10.4,8.7,17.5,20.2,24.8,31.3c10.7,6.2,21.6,12.1,32.9,17.4
		c3.3-3,5.4-7.4,9.6-9.1c0.6,5.5,0.6,11.1,1.4,16.7c4.1,1.2,8.4,2.1,12.6,3.3c19-8.3,29.3-32.3,51.7-34.1
		c1.9,11.5-10.1,16.1-17.8,21.2c-7.9,4.5-8.8,15.4-16.3,20.2c-6.1,3.3-11.3-2.5-15.8-5.7c-6.4,3.2-12.1,9.2-19.6,9.2h-4.8
		c1.6,2.8,3.1,5.6,4.5,8.7c-13.4,3.7-28.4,5.8-41.7,0.8c-8.4-3-6.7-13.6-5.4-20.5c2.7-6.9,11.6-3.3,17.3-4.1
		c-2-4.8-3.8-9.7-5.7-14.4c-1.2,0-3.6,0.1-4.9,0.1c-9.2,4.2-17.8-1.3-25-6.7c1.8,7.9,3,16,3.2,24.2c-12.2-7-23.9-15-34.3-24.4
		c-1.2-8.6,8.5-12.2,13.5-17.2c-4.5-7.2-8.5-14.6-12.1-22.2c-0.5,0.9-1.4,2.7-1.9,3.6c3.1,11.8-0.5,24-8.1,33.3
		c-5.2-5.9-8.3-13.5-14.4-18.5c2.2,9.4,4.9,20.7,15.1,24.5c8.7,5.1,22.7,9.3,22.3,21.7l0.3,1.6c6,7.5,14.1,13.5,24.1,10.7
		c1.9,5.2,3.2,10.7,5.3,16c17.2,3,34.6,8.4,52.2,6.1c8.1-1.2,8.7-10.2,10.5-16.4c11.1-0.1,23.3,1.1,32.6-6.3
		c7.3-4.2,9.5-12.6,13.9-19.1c8.4-5.5,19.7-9.8,22.6-20.4c2-6.2-4.8-9.1-8.3-12.6c5.2-7.6,14.5-16.8,8.2-26.8
		c-8.3-10.6-1.7-29.5-17.2-34.2c-0.3-11.1,3.8-22.5,0.3-33.4c-4.8-7.5-14.4-6.6-22-7.6C719,823.9,720.1,815.2,713.8,811.6
		L713.8,811.6z M625.7,838.6c1.4,18.1,7.9,37.3,22.7,48.8c-2.7-11.9-14.9-20.6-13-33.6c1.7-13.2-2.1-29.3,9.1-39.2
		c-1,18.9-8.1,39.9,2.7,57.3c3,6,7.4,11,12.2,15.8c4.5-2.3,10-3,14.5,0.2c4.5,3.2,0.4,9.1-2.7,11.7c9.7,3.9,24.4-3.4,30.4,8.2
		c-1.1-0.3-3.1-0.9-4.2-1.2c-1.8,1.3-5.4,3.9-7.3,5.2c-9.4,3.3-20.6,2.1-29.9-1.2c-4.6-5.9-9.2-11.7-16.6-13.8
		c-6.4-8.7-12.7-17.1-21.3-23.7C618.4,862.2,621.4,848.8,625.7,838.6L625.7,838.6z M650.6,856.4c4.4-1.4,9.3-0.5,11.9,3.6
		c4.7,6,13.2,11.3,11.5,20.1c-4.7,1.1-10.4,1.1-13.2-3.5C656.3,870.7,649.3,864.4,650.6,856.4L650.6,856.4z M723.7,837.3
		c5.5,0.6,12.6-2.8,16.8,2.3c2.9,11.3-1.7,22.8-2.1,34.2c4.4,1.7,9.5,3.1,12.1,7.6l1.1,0.4c-0.1,5.6-0.2,11.3,0.7,16.9
		c1.5,2.7,2.8,5.6,4.1,8.6c3,3.4,1.7,9.1-0.7,12.7c-3.4,5.1-8.2,11.6-15.3,9.7c-1.6-9,0.3-18,1.1-26.9c-4,0.8-8.1,3.7-12.1,1.9
		c-2.8-6.1-0.3-12.4,1.1-18.4c-6.6,4.4-9.2,12.3-14.1,18.2c2.3,0.1,7.1,0.3,9.4,0.4c2.9,7.3-3.5,12.2-8.8,15.6
		c6.9,2.1,13.8,4.3,20.9,5.6c2.6,4.8-1,11-6.4,11.3c-0.7,4.6-4.1,9.1-9.2,8.3c-14.7-0.5-29.4,5.2-43.8,1.2
		c-5.9-2.4-5.6-9.7-7.4-14.7c-8.9-0.2-18.9,3-26.5-3.3c-13.8-10.2-28-22.8-33.6-39.5c14.9,0.8,31.7,9.6,36.5,24.6
		c7.6,5.7,17.5,2,26.2,4.4c8.2,1.2,14.3,7.5,21.8,10.4c4.3-1.8,8.4-4,12.8-5.5c-6.9-6.4,5.9-10.9,3.7-18.2
		c-0.7-9.6,5.1-18.2,5.5-27.7c-10.7,5.8-19.9,17.5-33.7,13.3c0.7-5.4,8.3-4.2,12-7c10.2-6.5,7.8-21.3,1.2-29.5
		c-2.9,7.1-4.6,15.1-10.4,20.6c-4.4-0.7-3.2-7-5.1-10c-2.3-8.1-11.2-10.5-18.4-11.9c2.5-9.5,16-5.4,23.4-6
		c-6.4-10.4-20.9-2-30.4-1.8c1.4-6.7,9.3-7.7,14.4-10.5c9.1-4.7,19.1-1.1,28.3,1c-10.5-10-26.9-4.3-40-5.5c1.9-4.4,6.7-6,10.5-8.1
		c-7.5-2.3-14.1,3.4-21.2,4.9c8.3-13.9,24.3-25,41-23.7c3.2,1.2,8.3,1.1,9.3,5.4c9.1,3.8,13.6,13.6,18.3,21.6
		C719,832.4,720.7,835.5,723.7,837.3L723.7,837.3z"/>
	<path class="st23" d="M1787.2,1033c-19.2-4.7-40.7,0.5-55.3,14c-15,13.9-19.6,39.6-6.6,56.3c11.6,14.4,32.7,15.8,49.4,11.3
		c14.1-3.6,25.6-17.2,23.5-32.1c-1.6-18.9-25-29-41.3-22.1c-10.9,4.3-16.3,19.4-9.1,29.1c4.9,7.4,14.7,5.9,22.3,4.8
		c-4.8-5.5-16-3.9-17.6-12.3c-2.3-13.2,16.3-21.1,26.2-14c7.7,4.8,14.9,14.7,10.3,23.9c-10.5,21.1-46.5,24.9-58.3,2.9
		c-12.1-23.1,8.3-52.8,33.3-53.6c26.1-2.1,54.9,15.9,58.5,43.1c3.8,19.5-1.5,39.8-12.3,56.2c-14.6,22.5-37,38.7-60.5,50.9
		c-33.5,17.1-71.3,26.9-109,23.9c-23.1-1.6-45.2-9.2-66.1-18.7c0.6-3.9,5.4-4.3,8.1-6.4c29.2-15.6,54.2-39,71.4-67.3
		c5.9-9.8,11.3-20.3,12.9-31.8c4.8-34.1-16-70.4-48.6-82.2c-12.1-4.4-25-2.7-37.5-1.6c-0.1-1.4-0.3-4-0.4-5.4
		c-3,4.1-6.4,7.8-11.3,9.7c-5.1,3.7-10.2,7.4-15,11.5c-20,17.7-21.4,56,4,69.6c22.2,11,58.7,7.2,67.2-19.8
		c7-20.3-12.8-39.9-32.8-37.9c-16.6-1.8-30.2,18-21.5,32.5c4.5,8.6,15.7,7.7,23.8,6.3c-2.3-5.8-11.7-3.7-15.5-8.5
		c-6.8-7.3-0.2-18.6,8.2-21c16-7.3,36.8,11.8,28.6,28.1c-11.7,20.9-46.4,25.6-60.9,5.1c-13.6-19.9-1.4-48.9,20-57.4
		c27.9-11.3,63.3,4.2,74.7,32c6.2,18.6,5.1,39.7-2.8,57.7c-17.2,37.3-53.6,62.2-90.7,77c-44.8-23.7-83.1-57.9-127.4-82.4
		c-22.8-12.9-47.1-23.3-72.6-29.5c-34.3-9.2-69.3-15.7-104.7-18.8c-18.4,2.5-36.9,0.2-55.3,1.2c-7,0.5-13.8-1.1-20.1-3.8
		c-26.3,1.3-53,3.3-78.7,10c-22.3,5.6-41,19.9-63,26.1c-0.3,6.5-6.2,9.4-11.8,11.1c24.7-37.7,40.8-81.2,43.5-126.5
		c3.6-14.8-0.6-29.8-2-44.6c-1.7-10.3-2.9-20.9-7-30.5c-5.5-10.4-10-21.3-13.3-32.6c-32.9-64.5-116-101.6-184.9-74.8
		c-26,9.8-49.8,32.9-50.4,62.1c0.9,34.6,39.5,61,72.1,49.4c2.8,4.9,5.2,10.1,9,14.6c-4.3-16.5,10.2-28.4,19.9-39.4
		c9.8-10.6,10.2-25.8,7.6-39.1c-0.8-0.9-2.3-2.8-3.1-3.7c-14.9-18.9-39.8-24-62.6-24.8c15.5-7.9,32.5-12.5,49.7-15.1
		c28-4.1,57.9,3.9,78.9,23.2c23.3,20.8,36,50.5,44.1,80.1c3.3,5.6,3.7,13.6-3.6,16.2c9,8.4,11.3,20.9,9,32.7
		c1.7,13.7,3.2,27.5,0.5,41.3c3.6,10.9,0.6,22.7-4.2,32.8c-2.2,3.3,2.6,6.3,0.6,9.8c-5.7,23.1-11.9,46.8-25.3,66.7
		c-1.2,1.7-3.6,5.1-4.8,6.8c-3.5,5.9-7.4,11.5-12,16.6c0.6-16.6,1.6-33.7-5.1-49.3c-5.6-15.9-18.2-27.9-31.6-37.4
		c-10.2-6.1-21.9-8.5-32.3-14.1c-20,1-41.2,3.6-57,17.2c-25.6,20.4-22.5,66.4,6.4,82.4c13,7.8,34.9,9.3,43.1-5.9
		c6.7-13.6-2-27.2-4.9-40.3c8.9-8.6,27.2-6.3,33.4,4.8c9.8,14.9,13.9,33.7,11.2,51.3c-11,26.3-30.3,47.6-47.3,70
		c-19.3,12.6-38.9,24.7-57.6,38.1c-13.8,10.2-28.2,20.1-44.5,25.9c-40,22.8-82.2,43-127.1,53.7c-27.6-3-54.8-10.4-80.9-19.5
		c-46.2-21.9-82.3-60.4-128.6-82.1c-38.7-18.8-83.3-20.4-125.3-14.6c-17.3,1.8-33.6,8.5-50.4,12.3c-37.8-19.2-81.6-21.9-123-15.9
		c-47.9,7.8-94.5,31.7-123.3,71.5c-9.8,14.2-20.3,29.6-20.3,47.6c-1.3,26.7,14.8,53.7,39.7,64.1c17.8,7.1,38.9,3.5,54.1-7.9
		c17.4-12.8,23.4-40.7,8.9-57.9c-11.3-12.5-30.5-13.5-45.8-9.3c-15.1,3.9-25.8,21.1-20.2,36.2c4.7,13.5,20.7,19.1,33.9,16.4
		c11.2-2,17.6-14.8,14.1-25.3c-2.3-9-17.1-12.3-22.2-5.6c5.4,1.5,12.8,1.5,15.3,7.8c2.6,6.6-2.9,13.4-8.9,15.7
		c-13.7,5.9-31.5-10.4-24.7-24.4c9.9-17.2,37.4-22.6,51-6.9c13.2,15.2,5.4,40.1-10.9,49.8c-26.7,16-66.3-3-71.4-33.5
		c-4.2-21.6,2.8-44.1,16-61.3c15.4-20.2,36.7-35,59.3-46.1c26.5-12.8,55.6-21.1,85.2-20.3c23.7-0.1,46.7,7,68.4,15.7
		c0.1,3.7-5.1,4.2-7.3,6.5c-26.7,15.5-49.3,37.9-64.7,64.6c-6.5,11.2-12.1,23.4-12.3,36.6c-1.1,27.3,14.9,54.2,38.9,67.1
		c23.4,12.5,54.8,5.9,72-14.1c12.8-15.2,15.2-40.7,1.1-55.8c-11.7-12.3-30.6-13.5-46.2-10.1c-15.4,3.2-29,17.7-26.6,34.1
		c1.9,21.3,31,31.4,47.2,19.3c10.9-7.8,10.5-30-4.5-32.4c-4.4,0.3-12.6-1.8-14.2,3.1c6,1.7,14,1.4,17.4,7.7
		c4.7,8.7-4.5,17.9-12.8,19.3c-13.9,2.7-30-12.8-24.1-26.7c10.3-19.1,40.3-25.8,55.8-9.3c14.4,15.4,7.3,41.9-9,53.1
		c-29.2,20.4-76.8-0.8-80.7-36.4c-3.7-20.3,1.3-41.6,12.8-58.7c16.6-25.7,42.6-43.7,69.7-57c2.9-2,6.5-2.1,9.5,0.1
		c45.8,24.7,86.5,58.3,134,80c25.4,12.4,53.2,18.5,80.7,24.1c44.1,8.9,89.1,13.4,134.1,11.7c56.3-1.7,112.5-15.8,161.9-43.2
		c-26.8,32.1-43,72.4-48,113.8c-6.5,54.2,7.5,113.4,46.8,153c31.1,31.2,77.8,50.1,121.7,39.1c22.9-5.3,44.4-20.5,53.2-42.9
		c14.4-30.6-15-71.1-48.6-66.5c-16,1.7-28.6,13.2-38.1,25.3c-8.2,10.7-10.9,26.3-3.2,38.1c10.4,16.6,30.3,23.7,48.8,26.5
		c-0.5,4.2-6.5,3.2-9.4,5c-26.1,8.3-56.4,9.1-80.5-5.4c-27.8-16.6-43.6-47.3-51.7-77.7c-14.6-57.9-10.6-120.8,11.7-176.3
		c7.2-18.8,19.7-35,33.5-49.5c-2,11.6-4.4,23.5-2.3,35.4c5.7,40.9,49,72.2,89.6,64.9c10.4-1.9,20.4-6.1,29-12.3
		c20.2-14.7,24.3-46.7,9.5-66.4c-10.7-14.4-33.2-23.8-49.1-12.3c-12.2,10.4-6.5,28-1.8,40.8c-6.2,9.5-21.3,6-28.7-0.2
		c-20.6-27.6-15.9-71.5,10.5-93.6c47.8-18,87.9-51.6,120.4-90.5c34-24,71.2-43.8,110.2-58.4c14.1-5.1,29.2-10.9,44.4-6.7
		c31.6,6.6,64.6,12.8,91.7,31.5c45.9,29.4,84.9,71.4,138.1,88c50.6,15.1,105.4,11,155.4-4.2c45.8,24.7,100.3,27.4,150.6,17.2
		c47.1-10.2,92.3-35.6,120.1-75.8c8.3-12.6,17.1-26,18.1-41.5C1839.1,1075,1818.2,1041.8,1787.2,1033L1787.2,1033z M450.8,1306.1
		c-35.2-12.7-69.6-28.4-100-50.4c-14.9-11.1-31.1-20.3-45.6-31.9c26.2-11.2,56.4-9.4,83.7-2.9c50.9,12.8,95.9,40.9,141.3,66.2
		c24.5,13.2,48.7,27.8,75.7,35.6c5.8,1.8,12.2,2.6,17.6,5.7C565.1,1334.6,505.7,1326.5,450.8,1306.1L450.8,1306.1z M1428,1193
		c-50.3-17-94.6-47.1-140.2-73.6c-27.8-15.9-56-32.9-88.1-38.6c-0.1-0.8-0.2-2.3-0.3-3c29.7-1.5,59.7-2.1,89.2,2.4
		c55.2,8.3,108,29.2,156.6,56.4c29.4,17.9,56.5,39.6,84.3,59.8C1496.7,1207.6,1460.4,1203.9,1428,1193L1428,1193z"/>
</g>
<path class="st4" d="M624.6,813.4c7.8-5.5,14.4-12.7,23.4-16.4c-8.1,13.8-15.4,32.9-32.5,37c-1.1-1.1-3.2-3.4-4.3-4.5
	c3-6.6,6.5-12.8,9-19.6C621.3,810.8,623.5,812.5,624.6,813.4L624.6,813.4z"/>
<path class="st24" d="M648.1,826.8c8.3-13.9,24.3-25,41-23.7c4.2,6.4,8.3,13.1,10.7,20.6c-10.1-1.7-20.3-2.6-30.6-1.7
	C661.7,819.6,655.1,825.3,648.1,826.8 M665.7,816.7c6.6-0.3,13.3-0.5,20-0.5c0.2-1.2,0.7-3.6,0.9-4.8
	C679.6,809.5,670.3,810.3,665.7,816.7L665.7,816.7z"/>
<path class="st1" d="M689,803c3.2,1.2,8.3,1.1,9.3,5.4c5.1,11.4,8.9,24.6,18.7,33c0-3.9-0.2-7.6-0.4-11.4c2.3,2.3,4,5.4,7,7.2
	c5.5,0.6,12.6-2.8,16.8,2.3c2.9,11.3-1.7,22.8-2.1,34.2c4.4,1.7,9.5,3.1,12.1,7.6c-2.2,0.1-4.2,0.4-6.3,0.8
	c-0.2,3.5-0.5,7.2,0.5,10.7c3,1.2,6.2,2.5,7.6,5.8c1.5,2.7,2.8,5.6,4.1,8.6c-3.6-2-7.1-3.9-10.7-5.6c2.2,6.5,2.9,13.3,2.6,20.2
	c2.5-0.6,5-1.2,7.5-1.9c-3.4,5.1-8.2,11.6-15.3,9.7c-1.6-9,0.3-18,1.1-26.9c-4,0.8-8.1,3.7-12.1,1.9c-2.8-6.1-0.3-12.4,1.1-18.4
	c-6.6,4.4-9.2,12.3-14.1,18.2c-1.1,0.2-3.3,0.4-4.3,0.6c-0.7-9.6,5.1-18.2,5.5-27.7c-10.7,5.8-19.9,17.5-33.7,13.3
	c0.7-5.4,8.3-4.2,12-7c10.2-6.5,7.8-21.3,1.2-29.5c-2.9,7.1-4.6,15.1-10.4,20.6c-4.4-0.7-3.2-7-5.1-10c-2.3-8.1-11.2-10.5-18.4-11.9
	c2.5-9.5,16-5.4,23.4-6c-6.4-10.4-20.9-2-30.4-1.8c1.4-6.7,9.3-7.7,14.4-10.5c9.1-4.7,19.1-1.1,28.3,1c-10.5-10-26.9-4.3-40-5.5
	c1.9-4.4,6.7-6,10.5-8.1c10.2-0.9,20.4,0,30.6,1.7C697.4,816.2,693.3,809.5,689,803 M713.9,845.5c0,1.3,0.2,3.7,0.2,5
	c-3.9-1.2-7.7-2.1-11.5-2.7c2.9,6.8,5.6,13.6,8.7,20.4c3.8,0.6,5.8-3.9,8.5-5.8c4.5,7.3,0.5,15.7,0,23.5c5.6-1.3,3.6-11.4,8.6-14.5
	c1.7,0.6,4.9,1.7,6.6,2.3c2.2-9.4,4.2-19,2.9-28.6c-8.1,2.8-4,13.9-6.3,20.4l-2.5-0.1C727.2,856.8,723.9,846.8,713.9,845.5
	L713.9,845.5z"/>
<path class="st0" d="M601.7,807.4c3.3-0.6,6.7-1,10.1-1.2c-3.9,11.2-5.7,23-5.5,35c-6,15.1-5.5,31.5-5,47.5
	c-4.7-0.3-9.3-1.1-13.9-0.6c-2.3,0.2-4.6,0.6-6.8,1.1c-7-18.7,3.8-37.3,13.4-52.7c-2,0.4-5.8,1.1-7.8,1.4
	C586.9,826,592.6,814.9,601.7,807.4 M596.7,883.6c2.4-11-2.2-21.9-4.4-32.6C586.9,860.4,581.1,881.2,596.7,883.6z"/>
<path class="st3" d="M611.8,806.1c3.1,0.4,5.9,1.7,8.4,3.7c-2.5,6.7-6,13-9,19.6c-1.8,3.8-3.4,7.7-4.9,11.7
	C606,829.2,607.8,817.4,611.8,806.1L611.8,806.1z"/>
<path class="st3" d="M698.3,808.5c9.1,3.8,13.6,13.6,18.3,21.6c0.2,3.7,0.4,7.5,0.4,11.4C707.2,833.1,703.5,819.9,698.3,808.5
	L698.3,808.5z"/>
<path class="st11" d="M552.1,854.7c4.9-16,11.3-32.3,23.4-44.3l2.8,1.1c4.3,11.1-6.4,20.1-8.7,30.4c-6.4,15.6,4.5,31.7-0.4,47.7
	c-7.4-5.1-11.3-13.5-14.9-21.4C552.6,863.9,549.8,859.3,552.1,854.7L552.1,854.7z"/>
<path class="st3" d="M665.8,816.7c4.6-6.4,13.8-7.2,20.9-5.4c-0.2,1.2-0.7,3.6-0.9,4.8C679,816.2,672.4,816.4,665.8,816.7
	L665.8,816.7z"/>
<path class="st25" d="M635.4,853.8c1.7-13.2-2.1-29.3,9.1-39.2c-1,18.9-8.1,39.9,2.7,57.3c3,6,7.4,11,12.2,15.8
	c-3,2.3-5.9,4.8-8.7,7.4c6.9,1.1,13.8,2.2,20.5,4.4c9.7,3.9,24.4-3.4,30.4,8.2c-1.1-0.3-3.1-0.9-4.2-1.2c-9-2.9-25.9-7.2-29.2,5
	c7.3,0.5,14.6,0.3,21.9,0.2c-9.4,3.3-20.6,2.1-29.9-1.2c-4.6-5.9-9.2-11.7-16.6-13.8c-6.4-8.7-12.7-17.1-21.3-23.7
	c-4.1-10.7-1.1-24.2,3.2-34.3c1.4,18.1,7.9,37.3,22.7,48.8C645.7,875.5,633.5,866.8,635.4,853.8L635.4,853.8z"/>
<path class="st20" d="M914.5,835.3c2.6-5.5,5.4-11,9.8-15.2c0.9,1.3,2.6,3.8,3.5,5.1c-3.6,4.4-7.1,9-10.3,13.8
	C916.9,838.1,915.3,836.3,914.5,835.3L914.5,835.3z"/>
<path class="st22" d="M917.7,839.1c3.1-4.8,6.7-9.4,10.3-13.8c1.4,5.4,2,11,2.9,16.7c0.2,1.1,0.6,3.3,0.8,4.4
	c11.5-3.3,18.7,8.5,30.1,6.6c3.2,2.9,5.9,6.4,9.1,9.4c4.4,2.2,8.6-1.6,12.6-3c-0.1,1.5-0.2,4.5-0.3,6.1c-0.2,1.4-0.5,4.1-0.7,5.5
	c9.6,0.2,16,7.7,18,16.6c-0.8,5.8-2.9,11.4-4.3,17.2c3.3-1.8,6.7-3.7,10.2-5.2c5.6,4.4,10,10.1,14.8,15.4c9,8.4,11.3,20.9,9,32.7
	c1.7,13.7,3.2,27.5,0.5,41.3c-1.4-0.4-4.2-1.1-5.5-1.4c-1.2-6.5-1.3-13.2-2.1-19.7c-5.9,5.5-8.7,13.3-14.4,19
	c0.3-11.6,2.8-22.9,3-34.5c-6.7,8.5-6.8,20.9-14.9,28.4c-0.7-7.1-0.7-14.1-1.2-21.1c-8.8,2.9-7.6,18.3-17.5,21.3
	c1.1-12.8,6.4-24.6,9.2-36.9c-7.6,6.3-11.3,17.2-20.6,21.2c-7.7-13.1,6.4-23.1,12.1-33.6c-6.1,3.4-12,7.3-18.4,10.2
	c-2.8-3.6-4.8-7.9-4.9-12.3c5.7-7.4,14.1-12.1,20.3-18.9c-9.5,3.2-17.2,10.1-26.8,12.7c-1.7-3.6-5.2-7.6-3.5-11.6
	c7.9-6.4,18.5-9.5,23.8-18.6c-8.3,3.7-15.7,9-24.1,12.6c-4.2-1.7-3.8-7.3-5.3-10.7c-3.3-12.1-4.6-24.7-7.4-36.8l-2.2-0.7
	c-1.4,14.3,2.6,28.2,3.7,42.4c-6.5,0.1-12.7-1.6-18.9-2.8c6.1,5.7,15.4,5.7,21.8,10.7c6.3,12.6,10.6,26.3,14.2,39.9
	c-4.6-0.8-9.3-2.2-12.4-5.8c-3.9-5.7-1.6-14.1-7.1-18.8c-0.6,3.8-1.1,7.6-1.5,11.5c-8.3-6.5-15.3-14.6-24.1-20.4
	c2.5,5.1,5.7,9.8,7.9,15.2c-1,1.9-2,3.9-3.1,5.9c9.5,2,20.3,4.2,25,14c-3.9,0.9-7.9,1.8-11.7,2.9c9.8,0.4,21.8-0.1,26.7,10.4
	c-1.8,6-6.4,10.8-11.2,14.6c-9.8-7.3-16.9-17.6-27.2-24.2c0.7,4.1,1.7,8.2,2.6,12.4c-7.1-6.9-14.4-13.5-21.8-20
	c-6.7-5.4-4-15.1-3.4-22.5c0.1-1.3,0.2-3.9,0.2-5.2c-4.3-16.5,10.2-28.4,19.9-39.4C919.8,867.6,920.2,852.4,917.7,839.1L917.7,839.1
	z"/>
<path class="st20" d="M930.8,841.9c3.7-1.5,7.3-3.2,11.1-4.5c2.6,2.9,5,6.2,7.7,9.2c3.4,0.1,6.8-0.7,10.4-0.8
	c4.2,2.6,6.8,7,10.7,10.2c4.1,1.1,8.7,0.9,12.6,3.2c-4,1.4-8.2,5.2-12.6,3c-3.2-3-5.9-6.5-9.1-9.4c-11.4,1.9-18.6-10-30.1-6.6
	C931.4,845.2,931,843,930.8,841.9L930.8,841.9z"/>
<path class="st22" d="M1491.6,842.7c16-2.7,35.1-5.2,48.4,6.3c5.9,5.7,14.3,5.8,21.8,7.8c-0.8,3.9-1.8,7.8-2.5,11.8
	c8.8,0.4,18.1-3.1,26.5,0.5c1.6,3.7,1.7,8.3,4.6,11.5c6.5,1.2,13.4,1.1,19.8,3.5c-0.5,3.7-0.2,7.3,0.9,10.8c8.1,5,17.1,9.2,23,17
	c2.3,4.3-4.1,5.8-6.2,8.3c3,3.4,7.5,5,11.5,7.3c0.5,5.3,0.1,10.6,0.9,16c5.9,8.5,14.2,16.5,15.2,27.5c-7.9,0.8-13.9-5.1-20.7-8.1
	c-4.4,0.3-5.1,5-7,8.1c-12.1,0.7-24.5-1.3-36.4,1.6c-3,5.2-4.2,11.7-9,15.7c-8.3,0.8-16.5-2.3-24.7-2.6c1.3,5.3,3.1,10.4,4.5,15.8
	c-12.9,4.2-18.1-10.5-29.1-12.7c3,7.5,8.4,13.7,11.3,21.2c-3.3,2.8-7.4,1.1-11.1,0.5c-6-1.4-12.3-0.8-18.3-0.9
	c1.1-5.5,5.1-9.6,7.9-14.1c-4.4-2.7-9.1-4.9-13.5-7.3c2-2.3,4.1-4.3,6.2-6.4c-3.3-4.7-8.7-7.6-12.3-11.9c2.6-1.2,5-2.7,7.1-4.5
	c-3.2-7.6-7.7-15-7.5-23.4c8.3-1.8,10.3,9.5,14.4,14.7c4.3,15.8,21.1,22.5,36,23.8c-6.7-4.8-14.5-7.7-20.9-12.7c0-2,0.1-5.9,0.1-7.9
	c3.7-0.7,7.5-1.2,11.3-1.7c0.1-7.5-12.3-2-13.7-8.9c-2.5-5.2-3.4-15.4,5.4-13.2c13.9-1.5,17.2,14.3,23.8,23.2
	c-1.8-8.1-4-16-4.7-24.2c4.4-0.3,8.8-0.6,13.4-0.2c7,12-0.7,29.6,9.6,40.2c4.2-12.7-1.2-25.9-0.1-38.9c20.8,3.6,40,13.6,60.9,17.1
	c-12.1-15.2-33.4-17-50.8-22.1c0.8-7.7,6.3-14.5,12.9-18.2c6.2-1.6,12.6-1.5,18.9-2.3l0.1-2.6c-8.2-0.3-17-1.4-24.5,2.6
	c-6.2,4.8-9.4,12.6-15.5,17.5c-8.6,0.2-17.1-1.4-25.7-1.7c-9.7-0.7-19.6,0.2-29-2.8c7.6-9.2,18.2-15.5,29.1-20
	c7.1,0.5,13.3,5.2,20,7.6c-3.7-4.9-7.6-9.6-11.1-14.6c11.9-1.4,24-1.5,35.6-4.6c-12.4-8.7-28.3-0.6-42-0.1
	c-0.5-4.6-0.5-9.3-0.8-13.8c-5.7,11.6-11.6,25-26.1,27c-0.5-5.1-0.8-10.3-1.2-15.3c-2.8,6.5-3.1,13.8-6.3,20.1
	c-3.7,3.6-8.5,5.7-13.5,6.9c-5.4-6.2-11.9-12.3-14.5-20.1c12.3-7.5,27.3-10.7,37.8-21c-9.1,0.5-18.1,1.8-27.1,2
	c9-11.2,26.1-13.3,33-26.4c-8.2-5.2-19-5.8-27.8-1.6c-12,5.7-20.6,16.7-32.7,22.2c3.2-7,8.3-12.8,13.2-18.6c2-2.6,3.7-5.2,5.4-7.9
	c-1.5-0.1-4.4-0.2-5.9-0.3L1491.6,842.7L1491.6,842.7z"/>
<path class="st3" d="M713.9,845.5c10,1.3,13.3,11.3,15.1,19.9l2.5,0.1c2.3-6.6-1.8-17.6,6.3-20.4c1.4,9.6-0.6,19.3-2.9,28.6
	c-1.6-0.6-4.9-1.7-6.6-2.3c-5.1,3.1-3,13.2-8.6,14.5c0.5-7.9,4.5-16.2,0-23.5c-1.7-4.1-3.7-8-5.6-11.9
	C714.1,849.2,714,846.7,713.9,845.5L713.9,845.5z"/>
<path class="st12" d="M702.6,847.7c3.9,0.7,7.7,1.5,11.5,2.7c1.9,3.9,3.9,7.8,5.6,11.9c-2.7,1.9-4.7,6.4-8.5,5.8
	C708.2,861.3,705.5,854.5,702.6,847.7L702.6,847.7z"/>
<path class="st3" d="M596.7,883.6c-15.6-2.4-9.8-23.2-4.4-32.6C594.5,861.7,599,872.6,596.7,883.6z"/>
<path class="st6" d="M650.5,856.4c4.4-1.4,9.3-0.5,11.9,3.6c4.7,6,13.2,11.3,11.5,20.1c-4.7,1.1-10.4,1.1-13.2-3.5
	C656.3,870.7,649.3,864.4,650.5,856.4L650.5,856.4z"/>
<path class="st26" d="M982.4,870.9c0.2-1.4,0.5-4.1,0.7-5.5c3.3,0.2,6.7,0.3,10.1,0.9c6.4,4.6,6.9,15.6,15.5,17.3
	c8,1.4,10,10.5,15.9,15c3.3,5.6,3.7,13.6-3.6,16.2c-4.8-5.3-9.2-11-14.8-15.4c-3.5,1.5-6.9,3.4-10.2,5.2c1.4-5.8,3.6-11.3,4.3-17.2
	C998.4,878.6,992,871.1,982.4,870.9L982.4,870.9z"/>
<path class="st3" d="M744.1,882.2c2-0.4,4.1-0.7,6.3-0.8l1.1,0.4c-0.1,5.6-0.2,11.3,0.7,16.9c-1.4-3.3-4.7-4.5-7.6-5.8
	C743.7,889.4,743.9,885.7,744.1,882.2L744.1,882.2z"/>
<path class="st3" d="M549.1,884.2c5.9,0.2,3.4,13.3-2.4,10.7C544.7,891.5,546.3,886.5,549.1,884.2z"/>
<path class="st14" d="M580.6,889.1c2.2-0.5,4.5-0.9,6.8-1.1c11.6,7,23.1,14.7,32.5,24.7c-5.3,6.2-1.1,14.3,3.5,19.5
	c6.4,7.1,13.2,13.9,19.3,21.3c-9.2,4.2-17.8-1.3-25-6.7c-5.9-5.9-11.8-11.7-17.6-17.5c-4.5-7.2-8.5-14.6-12.1-22.2
	C585.4,901,582.8,895.2,580.6,889.1L580.6,889.1z"/>
<path class="st2" d="M659.4,887.7c4.5-2.3,10-3,14.5,0.2c4.5,3.2,0.4,9.1-2.7,11.7c-6.7-2.2-13.6-3.3-20.5-4.4
	C653.5,892.4,656.4,890,659.4,887.7L659.4,887.7z"/>
<path class="st14" d="M610.9,889.3c14.9,0.8,31.7,9.6,36.5,24.6c-4.6-2.7-9.5-4.8-14.7-6c6.3,6.7,13.6,12.6,22,16.6
	c8.6,3.5,21-2.8,27,6.4c2.7,3.3,5.1,6.9,8,10.3c6.8-4.3,12-12.2,20.8-12.1c-0.4,3.7-1,7.4-1.3,11.3c7.4-0.9,14.8-2.1,22.2-2.9
	c-0.7,4.6-4.1,9.1-9.2,8.3c-14.7-0.5-29.4,5.2-43.8,1.2c-5.9-2.4-5.6-9.7-7.4-14.7c-8.9-0.2-18.9,3-26.5-3.3
	C630.6,918.6,616.5,906,610.9,889.3L610.9,889.3z"/>
<path class="st11" d="M547.8,910.4c0.4-7.7,8.6-12.4,15.6-12.6c9.5-0.7,16.1,7.3,22.7,12.9c3.1,11.8-0.5,24-8.1,33.3
	c-5.2-5.9-8.3-13.5-14.4-18.5C558.3,920.4,552.6,915.9,547.8,910.4L547.8,910.4z"/>
<path class="st3" d="M745.5,901.7c3.6,1.7,7.2,3.6,10.7,5.6c3,3.4,1.7,9.1-0.7,12.7c-2.5,0.7-5,1.3-7.5,1.9
	C748.5,915,747.7,908.2,745.5,901.7L745.5,901.7z"/>
<path class="st27" d="M668.3,911.5c3.2-12.1,20.2-7.9,29.2-5c-1.8,1.3-5.4,3.9-7.3,5.2C682.9,911.8,675.6,912,668.3,911.5
	L668.3,911.5z"/>
<path class="st11" d="M712,905c1.1-0.2,3.3-0.4,4.3-0.6c2.3,0.1,7.1,0.3,9.4,0.4c2.9,7.3-3.5,12.2-8.8,15.6
	c-2.9,0.8-5.8,1.8-8.6,2.8C701.4,916.7,714.2,912.2,712,905L712,905z"/>
<path class="st2" d="M632.8,907.8c5.2,1.1,10.1,3.3,14.7,6c7.6,5.7,17.5,2,26.2,4.4c8.2,1.2,14.3,7.5,21.8,10.4
	c4.3-1.8,8.4-4,12.8-5.5c2.8-1,5.7-1.9,8.6-2.8c6.9,2.1,13.8,4.3,20.9,5.6c2.6,4.8-1,11-6.4,11.3c-7.4,0.9-14.8,2.1-22.2,2.9
	c0.3-3.8,0.9-7.6,1.3-11.3c-8.8-0.2-14,7.7-20.8,12.1c-2.8-3.4-5.3-7-8-10.3c-5.9-9.2-18.4-2.8-27-6.4
	C646.4,920.5,639.1,914.6,632.8,907.8L632.8,907.8z"/>
<path class="st3" d="M623.4,932.2c-4.7-5.2-8.8-13.3-3.5-19.5c10.4,8.7,17.5,20.2,24.8,31.3c10.7,6.2,21.6,12.1,32.9,17.4
	c3.3-3,5.4-7.4,9.6-9.1c0.6,5.5,0.6,11.1,1.4,16.7c4.1,1.2,8.4,2.1,12.6,3.3l1.7,1.6c-6.4,3.2-12.1,9.2-19.6,9.2
	c-6.5-4.9-8.6-13.1-13.5-19.2c-6.1-5.7-13.9-10.4-22.3-10.4c-1.2,0-3.6,0.1-4.9,0.1C636.5,946.1,629.8,939.3,623.4,932.2
	L623.4,932.2z"/>
<path class="st11" d="M600,929.3c5.8,5.8,11.8,11.6,17.6,17.5c1.8,7.9,3,16,3.2,24.2c-12.2-7-23.9-15-34.3-24.4
	C585.3,937.9,595,934.4,600,929.3L600,929.3z"/>
<path class="st4" d="M701.2,972.3c19-8.3,29.3-32.3,51.7-34.1c1.9,11.5-10.1,16.1-17.8,21.2c-7.9,4.5-8.8,15.4-16.3,20.2
	c-6.1,3.3-11.3-2.5-15.8-5.7L701.2,972.3L701.2,972.3z"/>
<path class="st22" d="M392.6,944.9c7.2,2.1,12.6,8.5,19.9,10.2c3.3-2.4,6.3-5.2,9.6-7.5c9.5,2.7,15.5,11.3,23.3,16.9
	c0.6-3.6,1.2-7.2,1.9-10.7c7.9-3,14.2,6.5,22.2,4.5c0.3-1.4,1-4.3,1.3-5.7c0.8,1.7,2.3,5.1,3.1,6.8c3.2-0.8,6.4-1.8,9.5-2.8
	c4.5,2.9,9.2,5.7,13.8,8.6c3.1,2.7,6.3,5.4,9.3,8.5c5.7,4.7,3.9,12.8,5.1,19.2c0.5,6.8,1,13.7,0.5,20.6c-9.6-14.7-9.6-34.5-22-47.6
	c-6-3.1-12.9-3.2-19.4-3.4c3,13.5,10.9,25.4,14.8,38.6c-7.6-4.4-14.4-9.8-21.8-14.3c3.1,14.2,15,24.2,19.1,38
	c-7.5,3.9-15.4,7.5-23.8,8.5c-7.7-8-7.5-18.9-3.6-28.6c-3.1,1.7-6.1,3.5-9.2,5.2c-8.2-10.6-7.1-23.7-4-35.8
	c-3.3,2.5-6.2,5.5-9.2,8.4c-11.4-7.2-19.1-19.8-32.5-23.7c4.2,10.7,14.7,16.6,22.1,24.7c-4.6,3.6-11.1,3.5-15.8,7.1
	c7.3,2.1,16.4,0.7,22.2,6.4c6.6,9.5,10.9,20.6,13.3,32c-9.8-1.9-17.6-8.4-26-13.2c-8.2-5.2-17.2-9.1-24.6-15.4
	c-1.8-9.2,0.3-19.3-4.9-27.5c-4.2-7-11.6-10.8-18.7-14c4.8,5.1,10.4,9.5,15.1,14.7c4.6,7.2,3.4,16.3,2.6,24.4
	c-18.9-5.1-36.3-15.7-56.5-15.4c0.4-1.6,1.1-4.9,1.5-6.5c3.3-4.7,6.9-9.2,10.7-13.5c5.4,0.3,10.7,1.5,16.2,2.2
	c-1.6-3.8-3.4-7.4-4.5-11.2c10.8-2.9,21.9-1.2,32.8-0.3C389,951.5,390.2,947.7,392.6,944.9L392.6,944.9z"/>
<path class="st28" d="M889.4,950c4.5,10.7,11.3,20,17.2,29.9c-3.4,6.4-9.2-0.7-13.5-2.2c-4-5.1-6.7-11.4-7.4-17.7
	C886.9,956.6,888.1,953.2,889.4,950L889.4,950z"/>
<path class="st14" d="M647.5,953.5c8.5,0,16.3,4.7,22.3,10.4c4.8,6.1,7,14.3,13.5,19.2h-4.8c-10.2-1.7-17.8-8.8-25.3-15.1
	C651.3,963.1,649.4,958.2,647.5,953.5L647.5,953.5z"/>
<path class="st11" d="M636,972c2.7-6.9,11.6-3.3,17.3-4.1c7.6,6.4,15.1,13.5,25.3,15.1c1.6,2.8,3.1,5.6,4.5,8.7
	c-13.4,3.7-28.4,5.8-41.7,0.8C633,989.5,634.7,978.9,636,972L636,972z"/>
<path class="st22" d="M327.9,985.9c20.6,5.8,40.7,13.7,60.5,21.9c-5.3,12.6-18,20.1-23.3,32.7c14.9-4,19.6-21.2,32.6-27.9
	c4.3,1.6,8.2,4.1,11.7,7.2c-3.9,9.1-14.4,12.8-20.6,20.3c8.1-3,15.7-7.6,24.1-9.8c6.7-0.8,12.5,4,17.7,7.6
	c-2.1,5.3-6.3,10.4-12,11.7c-5.3-1.4-10.4-3.4-15.5-5.1c3.5,5.3,12.5,9.1,9.5,16.6c-9.2,3.3-18.8-0.2-28-1.2
	c7.2,7.3,18,9.2,27.9,9.6c10-0.7,18.4-6.9,26.2-12.5c4.2-0.8,8.4-1.3,12.7-1.6c-2.5,10.6-12.8,14.7-21.7,18.7
	c0.9,3.3,3.8,6.2,3.3,9.8c-4.5,0.5-9,0.6-13.5,1.3c0.2,2.9,0.5,5.8,0.9,8.9c-6.1,0-12-0.5-18-0.2c0.3,5,1.1,10.1,1.4,15.2
	c-6.4-1-10.5-6.4-16-9c-4.5-2-9.3-3.2-13.3-5.9c1.7-10.1,21.3-5.4,20.2-16.8c-9.9,0.7-26.5,7.6-29.9-6.3c3.4-3.6,10.5-4.8,11.6-9.8
	c-6.6-5-15.6-5.7-21.8-11.1c-3.9-6.7-0.3-14.6-0.5-21.8c-8.9-7.6-18.2-15.2-28.4-21c-1.2,0.3-3.6,1.1-4.8,1.4l-2.6,0.8
	c1.9-4.7,5.5-8.2,8.8-11.8c1,0.7,2.8,2,3.8,2.7C329.8,995.7,328.7,990.8,327.9,985.9L327.9,985.9z"/>
<path class="st29" d="M620.4,1004.3c8.8,2,15.7,8.2,22.6,13.7c4.2,1.5,8.6-0.2,13-0.1c2.2,3.3,3.6,7.3,6.6,10.1c2-2.4,2-7.1,5.5-7.8
	c7.6,5.3,11.5,14,16.5,21.6c2.6-1.1,5.1-2.3,7.7-3.3c1.6,6.3,2.6,12.8,4.4,19.2c3.5,1,7.1,1.7,10.8,2c3.3,8.5,2.2,17.9,5.3,26.5
	c-3.6,2.8-9,0.7-13.2,0.4c0.2-4.3,0.9-8.5,1.2-12.7c-4.3-4.4-9.6-2.1-13.9,0.8c-4-11.2-11.7-20.2-18-30.1c-2.1,1-4.2,2-6.3,3.2
	c-4.1-3.5-8.5-6.1-13.9-6.6c-2.5-4.8-3.6-10.2-5.6-15.1c-7.6-4.7-10.1,4.1-13.1,9.1c-3.7,1.7-8.1,0.5-12,1.2
	c-0.9,3.8-1.4,7.8-2.4,11.7c-9.8,1.1-12.5,9.7-13.4,18.2c-4.8,1.6-9.2,3.9-12.9,7.3c0.1-2.2,0.2-6.7,0.2-8.9c2.2-0.3,6.6-1,8.8-1.4
	c1.1-5.9,1.4-11.9,3.1-17.5c3.5-1.5,8.2-0.6,10.9-3.7c0.9-4.3,1.3-8.7,2.2-12.9c3.9,0.6,7.7,0.3,11.4-0.8
	C625.8,1019.7,618.9,1012.9,620.4,1004.3L620.4,1004.3z"/>
<path class="st22" d="M630.2,1034.9c3-5,5.4-13.8,13.1-9.1c2,4.9,3.1,10.3,5.6,15.1c5.4,0.5,9.8,3.1,13.9,6.6c2-1.1,4.2-2.2,6.3-3.2
	c6.3,9.9,14,18.9,18,30.1c4.3-2.9,9.6-5.2,13.9-0.8c-0.3,4.2-1,8.4-1.2,12.7c4.2,0.3,9.5,2.4,13.2-0.4c1-0.9,3.1-2.8,4.1-3.8
	c3.4,6.3,7.5,12.3,10.3,18.9c-2.5,13-4.4,26.4-9.3,38.8c-0.8-6.3-1.1-12.6-1.8-18.8c-10.8,9.1-5.1,27.3-14.3,37.3
	c-7.1-1.6-14-4.4-20.2-8.1c-2.7-13.1,10.8-17.5,19.8-22.3c-4.7,0.5-9.4,1.1-14.1,1.5c0.1-12.5,10-20,18.4-27.4
	c-3.5,0.4-6.9,0.8-10.3,1.1c-0.5-7.1-0.4-14.2-0.8-21.3c-6.4,9.1-6.8,20.5-10.1,30.8c-3.6-2-7-4.2-10.4-6.2
	c3.7,9.5,9.6,21.2,0.3,29.6c-1.1-0.2-3.3-0.6-4.4-0.8c-3.2-12.9-6.5-25.9-9.8-38.7c-3.1-9.8,9.2-14.6,12.3-22.8
	c-5.1,3.8-9.8,8-15.3,11.3c-6.7-14.1-8.6-31.4-21.3-41.9c4.3,17.6,13.5,33.6,17.8,51.3c-11.1,0.8-21.9-1.5-32.9-2.5
	c1.2,2.7,3.4,4.2,6.4,4.6c9.7,2,19.6,2,29.3,4c0.8,4,1.1,8.1,0.8,12.3c-11.5,1.1-22.9-0.6-34.3-0.3c9.6,5.8,21.6,3.7,32,7.8
	c3.4,4.3,3.6,10.1,3.9,15.5c-9-0.4-17.8-2-26.8-2.4c12.6,8.7,34.3,8.3,36.1,27.5c-12.6-1.7-23.7-8.4-35.5-12.3
	c10.9,12.1,25.3,20.5,35.7,33.1c-12.2-2.1-22-10-33-14.8c2.9,7.2,6.5,14.2,9.3,21.6c-12.2-5.5-21.2-15.9-32.7-22.5
	c7.2,12.6,18.4,22.1,26.4,34.1c-9-4.2-17.4-9.5-26.7-12.7c2.3,6.9,6.3,13.5,6.4,21.1c-12.3-2.6-18.9-15.1-23.4-25.7
	c-1.1-3.4-4.5-5-6.9-7.2c1.5-1.8,3.1-3.5,4.7-5.2c-3-0.9-5.9-1.7-8.8-2.6c-4.6-5.6-8.2-12.1-11.5-18.5c11.1-7.9,11.4-22,16-33.5
	c4.7,0.4,9.4,1.4,14.2,2.2c-4.1-4.7-8.5-9.1-11.7-14.4c2.3-6.6,9-10.3,12.1-16.3c2-5.1,3.5-10.4,4.2-15.8c-1.1-1.4-3.3-4.2-4.5-5.6
	c0.9-8.5,3.6-17.1,13.4-18.2c0.9-3.9,1.4-7.9,2.4-11.7C622.1,1035.4,626.5,1036.6,630.2,1034.9L630.2,1034.9z"/>
<g>
	<path class="st30" d="M556.3,144.3c-12.9-10.3-30.9-11.1-46.7-9.5c-0.1,1.9-0.4,5.8-0.5,7.8c9.5,7.3,22.1,9.2,33.6,11.5
		C548.3,154.7,557.5,151.1,556.3,144.3L556.3,144.3z"/>
	<path class="st30" d="M1253.9,785.7c3.3-3,7-5.3,10.4-8.1c1.1-4.1,0-8.7,2.4-12.2c4.2-4.1,9.2-7.3,13.5-11.4
		c-0.2-2.9-0.9-5.7-2.2-8.3c3.3-2.3,7-3.9,10.2-6.4c-1-3-1.9-6-2.8-8.8c3-4.3,8-7.1,10-12c-1.3-3-2.5-5.9-3.7-8.8
		c2.7-3.3,5.8-6.2,8.6-9.4c-2.3-3.4-4.5-6.7-6-10.3c-3.4-0.5-5.6,2.4-7.7,4.5c2,2.6,4.2,5.2,6.2,8c-2.1,2.5-4.5,4.9-6.5,7.6
		c0.1,3.5,0.7,7,1,10.6c-2.6,3.6-5.9,6.6-8.4,10.3c0.4,2.5,1.1,5,1.5,7.6c-2.3,2-4.8,3.8-7,5.9c-0.7,2.9-0.8,5.9-1.2,8.9
		c-6.1,6.1-13.7,11.3-13.3,20.9c-7.6,5.8-10.9,14.3-14.6,22.8c-9.1,7.2-21.6,7.6-32.7,8.3c-2.7-0.7-4.3,1.4-5.7,3.3
		c-13-0.5-25.1,6-38.2,4.7c1.4-9.3,13.8-7,18.1-13.4c-7.4-2.1-15-3.4-22.1-6.4c11.9-5.2,25.9-1.9,37.7-7.9
		c-11.6-1.4-23.9,0.8-34.8-4.2c5.7-3.9,14.5-3.8,18.9-8.9c-9.8-3.2-21-2.5-29.7-8.6c15.1-2.3,30.5-0.6,45.7-1.2
		c-10.1-4.6-21.3-6.4-31.1-11.7c9.9-12.4,25.2-1.7,37.2,0.6c-4.8-5.2-11.6-8.7-15.2-14.8c3.6-2.7,7.4-5.2,11.8-6.4
		c9.7,3.8,17.7,10.9,27.2,15.4c-6.3-8.5-15.5-13.8-22.6-21.4c2.3-3.4,5.5-8.2,10.4-6.8c8.9,4,15.4,12.1,24.4,16.1
		c-5-7.8-14.1-12.5-18-20.9c14.2-8.3,31.9-9.2,45.3-19c-15.1-0.5-28.3,7.2-42.2,11.6c-1.7-5-2.3-10.5-5.3-14.8
		c-0.6,5.9-0.5,12-1.2,17.9c-13.6,7.5-26.3,17.8-41.4,22.3c1-4.6,1.7-9.4,4.6-13.2c6.2-3.6,13.2-5.8,18.6-10.7
		c-4.9,0.4-9.8,1.1-14.6,1.7c4.1-8.8,9.1-17.3,12.2-26.6c-6.8,4.1-12.3,14.7-21.4,10.3c1.4,7.5,3.6,16.3-2.2,22.7
		c-2.1,0.7-4.1,1.4-6.1,2.1c0.6,6.3,1.3,13.3-3.9,18.1c-6.9-0.4-13.6-1.7-20.2-3.3c2.1-12.4,10.3-22.6,14.4-34.3
		c-4.2,1.6-8.3,3.5-12.4,5.2c6-13.2,10.4-30.9,27.5-33.1c2.4,2.3,4.6,5,7.2,7.5c3.2-0.2,4.7-4.2,7-6.1l-2.4-0.5
		c-1.2-0.2-3.6-0.6-4.7-0.8c-1.1-1.4-3.4-4.2-4.5-5.6c-6,2.1-11.3,6.2-17.8,6.5c-18.5,0.3-33.9,12.8-45.2,26.3
		c-9.9,11.3-24.4,20.4-27.3,36.2c-2.8,17.5,12.1,30.8,14.2,47.4c-14,13.1-29.5,24.4-44.2,36.6c-3.3,2.3-4.4,5.4-3.2,9.4
		c11.1-3.8,18.9-13.7,28.5-20.2c7.4-4.8,13.2-13.5,22-15.5c9.5,29.4,42.7,48.8,73,43.9c5.6-0.2,8.8-4.8,12.4-8.4
		c10.2-4.6,22.2-4.2,32-9.8c5.8-10.4,19.4-10.2,27.7-17.9C1252.8,794.3,1253.1,789.9,1253.9,785.7L1253.9,785.7z"/>
	<path class="st30" d="M1554.1,903.3c7.1,0.5,13.3,5.2,20,7.6c-3.7-4.9-7.6-9.6-11.1-14.6c11.9-1.4,24-1.5,35.6-4.6
		c-12.4-8.7-28.3-0.6-42-0.1c-0.5-4.6-0.5-9.3-0.8-13.8c-5.7,11.6-11.6,25-26.1,27c-0.5-5.1-0.8-10.3-1.2-15.3
		c-2.8,6.5-3.1,13.8-6.3,20.1c-3.7,3.6-8.5,5.7-13.5,6.9c-5.4-6.2-11.9-12.3-14.5-20.1c12.3-7.5,27.3-10.7,37.8-21
		c-9.1,0.5-18.1,1.8-27.1,2c9-11.2,26.1-13.3,33-26.4c-8.2-5.2-19-5.8-27.8-1.6c-12,5.7-20.6,16.7-32.7,22.2
		c3.2-7,8.3-12.8,13.2-18.6c-0.9-3.5-2.9-4.9-6.3-4.2c-16.2,2.1-31.8,7.9-45.8,16.2c-11.1,14.6-21.7,30-35,42.8
		c0.2-9.9,2.5-19.8,0.7-29.5c-7.3-8.4-3.7-20.1-7.4-29.9c-4-3.5-9.3-4.9-13.2-8.4c-1.4-3.8-2.4-7.7-3.8-11.4
		c-3.3-1.8-6.9-2.9-10.2-4.5c-1.1-1.8-3.3-5.4-4.5-7.3c-4.5,8.7,4.7,12.5,11,15.7c2.4,5.3,3.3,12.1,9.7,14.3
		c8.1,2.4,8.7,11.3,7.6,18.5c-2.6,14-5.7,28.1-5.6,42.5c-1.2,7.4-0.1,18.6-8.9,21.5c-1.4-6.1-2.1-12.2-3.3-18.2
		c-6.7,4.5-9.9,12.2-15.1,18.1c0.8-12.4,4.4-24.3,5.8-36.6c-7.1,9.5-9.7,21.6-17.5,30.7c-0.8-8.1-0.7-16.3-0.9-24.3
		c-6.5,9.2-11.4,19.6-20.1,27c2.4-13.6,9-25.9,12.2-39.2c-8.2,6.2-13.6,15.1-21.4,21.6c-7.8-13.5,5.7-23.9,12.5-34.1
		c-6.2,2.7-12.1,6.1-18.3,8.6c-1.4-4.4-2.6-8.8-2.6-13.4c6.8-9.5,18.8-13.1,26.5-21.7c-11.6,3.6-20.9,12.6-33.1,14.7
		c-0.3-5.1-3.7-12.3,2.3-15.2c9-6,19.6-9.7,27.5-17.3c-11.6,3.5-21.6,10.4-33.1,14.2c-2-18,0-36.1-0.8-54.1
		c-8.7,14.4-3.3,32.2-5.6,48.1c-7.1-1.2-13.9-3.3-20.8-4.9c5.4,5.5,13.2,6.9,20.2,9.4c4.9,15.2,7.9,31.1,9.9,47
		c-4.9-1.5-10.6-3-12.9-8c-2.2-7.1-1.6-14.7-2.7-21.9c-3,4.6-4,10.1-5.7,15.3c-8.4-7.6-14.6-17.4-23.8-24c2.3,7.3,6.2,13.9,9.6,20.8
		c-2.9,2-7,2.5-8.8,5.7c10.3,0.5,22.4,1,27.2,12.1c-3.2,2-6.5,3.8-9.8,5.7c9-0.8,21.7-1.9,24.7,9.3c-2.6,6.2-6.2,12-10.3,17.4
		c-12-7-19.6-19.4-31.4-26.8c1.6,5.4,3.4,10.7,5,16.1c-9-6.1-15.5-15-24.1-21.6c-9.3,11.1,2.1,24.1,8.8,33.3
		c3.7,3.3,3.3,10.1-2.1,11.3c-9.8-11.8-14.1-28.2-10.6-43.2c1.6-8.2,1.5-16.6,1.1-24.9c-1.3-0.1-3.9-0.2-5.1-0.3
		c0.7,7.3,3.2,14.8,0.2,22c-6,16.3,1.2,33.9,10,47.9c8.8,14.6,14.4,33.4,31.1,41.3c17.9,9.1,37.9-1.8,56.6,2.7
		c-2,2.1-3.9,4.2-5.8,6.4c7.7,1.4,14.4,5.4,21.1,9.3c9.9-8.4,18.9-18.1,30.3-24.5c11.8-6.9,22-16.9,27.7-29.4
		c3.2-7.3,7.7-14,14-18.9c-16.4,32.2-6,76.1,24.2,96.4c6,5.3,13.9,2.2,21.1,2.4c10.3,3,19.4,9.4,30.2,11.5c2.4-1.3,4.8-2.7,7.1-4.2
		c-2.6-13.1-16.5-15-26.8-19.2c-5.5-1.9-11.9,1.1-16.9-1.7c-5-10.5-9.1-21.4-12.6-32.4c-2.4-6.1,2.9-11.2,7.2-14.6
		c3.1,2.5,4.6,6.3,6.4,9.9c3,7.4,10.3,11.6,16.1,16.8c8,6.1,15.4,13.9,25.6,16.3c-4.8-17.4-24.1-26.4-27.6-44.6
		c-3.4-6.4,2.6-11.3,7-14.9c4.4,4.8,6.1,11.4,9.3,17.1c0.7,4.2,9.1,2,7-2c-1.6-11.1-11.1-21-8.9-32.3c8.3-2.3,17.3,1.1,24.2,5.7
		c4.9,6.7,5.4,15.2,7.2,23.1c4.3,15.8,21.1,22.5,36,23.8c-6.7-4.8-14.5-7.7-20.9-12.7c0-2,0.1-5.9,0.1-7.9c3.7-0.7,7.5-1.2,11.3-1.7
		c0.1-7.5-12.3-2-13.7-8.9c-2.5-5.2-3.4-15.4,5.4-13.2c13.9-1.5,17.2,14.3,23.8,23.2c-1.8-8.1-4-16-4.7-24.2
		c-0.4-2.9-0.6-5.8-0.8-8.7c-9.7-0.7-19.6,0.2-29-2.8C1532.6,914,1543.2,907.7,1554.1,903.3L1554.1,903.3z"/>
	<path class="st30" d="M1030.7,988.8c-1.4-0.4-4.2-1.1-5.5-1.4c-1.2-6.5-1.3-13.2-2.1-19.7c-5.9,5.5-8.7,13.3-14.4,19
		c0.3-11.6,2.8-22.9,3-34.5c-6.7,8.5-6.8,20.9-14.9,28.4c-0.7-7.1-0.7-14.1-1.2-21.1c-8.8,2.9-7.6,18.3-17.5,21.3
		c1.1-12.8,6.4-24.6,9.2-36.9c-7.6,6.3-11.3,17.2-20.6,21.2c-7.7-13.1,6.4-23.1,12.1-33.6c-6.1,3.4-12,7.3-18.4,10.2
		c-2.8-3.6-4.8-7.9-4.9-12.3c5.7-7.4,14.1-12.1,20.3-18.9c-9.5,3.2-17.2,10.1-26.8,12.7c-1.7-3.6-5.2-7.6-3.5-11.6
		c7.9-6.4,18.5-9.5,23.8-18.6c-8.3,3.7-15.7,9-24.1,12.6c-4.2-1.7-3.8-7.3-5.3-10.7c-3.3-12.1-4.6-24.7-7.4-36.8l-2.2-0.7
		c-1.4,14.3,2.6,28.2,3.7,42.4c-6.5,0.1-12.7-1.6-18.9-2.8c6.1,5.7,15.4,5.7,21.8,10.7c6.3,12.6,10.6,26.3,14.2,39.9
		c-4.6-0.8-9.3-2.2-12.4-5.8c-3.9-5.7-1.6-14.1-7.1-18.8c-0.6,3.8-1.1,7.6-1.5,11.5c-8.3-6.5-15.3-14.6-24.1-20.4
		c2.5,5.1,5.7,9.8,7.9,15.2c-1,1.9-2,3.9-3.1,5.9c9.5,2,20.3,4.2,25,14c-3.9,0.9-7.9,1.8-11.7,2.9c9.8,0.4,21.8-0.1,26.7,10.4
		c-1.8,6-6.4,10.8-11.2,14.6c-9.8-7.3-16.9-17.6-27.2-24.2c0.7,4.1,1.7,8.2,2.6,12.4c-7.1-6.9-14.4-13.5-21.8-20
		c-6.7-5.4-4-15.1-3.4-22.5c-1.7,0-5.2,0-6.9,0c4.5,12.2-1.4,25,2.8,37.2c1.1-3.4,2.3-6.7,3.7-9.9c4.5,10.7,11.3,20,17.2,29.9
		c-3.4,6.4-9.2-0.7-13.5-2.2c8,14.2,13,30,22.9,43.1c10.3,5.7,22.1,8,32.3,14.1c8.8,0.7,17.8,0.3,26.3,3.2
		c10.8,21,14.6,44.7,22.4,66.9c1.2-1.7,3.6-5.1,4.8-6.8c-2.7-19.8-10.9-38.1-16.5-57c14.7,1.2,29-2.5,41.8-9.7
		c2-3.5-2.8-6.5-0.6-9.8C1031.3,1011.6,1034.3,999.7,1030.7,988.8L1030.7,988.8z"/>
	<path class="st30" d="M546,1025.2c-0.2-8.9-6.7-15.5-12.1-21.7c-5.6-5.7-10.5-12.4-17.8-16c-1.1,1.4-3.4,4.1-4.5,5.4
		c0.5,6.8,1,13.7,0.5,20.6c-9.6-14.7-9.6-34.5-22-47.6c-6-3.1-12.9-3.2-19.4-3.4c3,13.5,10.9,25.4,14.8,38.6
		c-7.6-4.4-14.4-9.8-21.8-14.3c3.1,14.2,15,24.2,19.1,38c-7.5,3.9-15.4,7.5-23.8,8.5c-7.7-8-7.5-18.9-3.6-28.6
		c-3.1,1.7-6.1,3.5-9.2,5.2c-8.2-10.6-7.1-23.7-4-35.8c-3.3,2.5-6.2,5.5-9.2,8.4c-11.4-7.2-19.1-19.8-32.5-23.7
		c4.2,10.7,14.7,16.6,22.1,24.7c-4.6,3.6-11.1,3.5-15.8,7.1c7.3,2.1,16.4,0.7,22.2,6.4c6.6,9.5,10.9,20.6,13.3,32
		c-9.8-1.9-17.6-8.4-26-13.2c-8.2-5.2-17.2-9.1-24.6-15.4c-1.8-9.2,0.3-19.3-4.9-27.5c-4.2-7-11.6-10.8-18.7-14
		c4.8,5.1,10.4,9.5,15.1,14.7c4.6,7.2,3.4,16.3,2.6,24.4c-18.9-5.1-36.3-15.7-56.5-15.4c0.4-1.6,1.1-4.9,1.5-6.5
		c-10.1,0.4-20,3.7-28.2,9.7c5.1,8.7,18.8,3,24.6,12c1,0.7,2.8,2,3.8,2.7c-1.1-5-2.2-9.9-3-14.7c20.6,5.8,40.7,13.7,60.5,21.9
		c-5.3,12.6-18,20.1-23.3,32.7c14.9-4,19.6-21.2,32.6-27.9c4.3,1.6,8.2,4.1,11.7,7.2c-3.9,9.1-14.4,12.8-20.6,20.3
		c8.1-3,15.7-7.6,24.1-9.8c6.7-0.8,12.5,4,17.7,7.6c-2.1,5.3-6.3,10.4-12,11.7c-5.3-1.4-10.4-3.4-15.5-5.1
		c3.5,5.3,12.5,9.1,9.5,16.6c-9.2,3.3-18.8-0.2-28-1.2c7.2,7.3,18,9.2,27.9,9.6c10-0.7,18.4-6.9,26.2-12.5
		c3.1-3.7,5.2-9.3,10.4-10.5c9.4,1.1,18.4,4.8,26.8,9.2c-5.7,12.6-25.6,14.4-26.8,29.2c9.4-1.4,17-7.7,25.4-11.6
		c0.2,5.2,1.8,11.1-1,15.9c-9.9,10.8-24.4,15.3-37.9,19.3c-5.1,1.9-12.2,2.7-14,8.8c15.5-2.1,31.2-0.9,46.7-3.5
		c8.2-1.1,13.6-9.2,21.9-9.7c2.1,4.3,3.7,8.9,3.7,13.8c-6.4,5.9-13.9,10.5-20.1,16.6c-5.3,4.5-10.7,11-18.4,10.6
		c-6.1-3.6-11-10.1-18.6-9.8c-7.3-0.2-13.8-3.9-20.8-5.4c-3.5,1.5-6.6,3.9-9.7,6c0.6,1.8,2,5.4,2.6,7.3c15.2,9.1,37.7,2,48.8,17.7
		c33.9,8.6,68-17.5,78.3-48.9c4.2-10.5,0.8-22.4,5.7-32.6c3-7.8,7.6-16.3,4.1-24.6C542.5,1045.2,546.8,1035,546,1025.2L546,1025.2z"
		/>
	<path class="st30" d="M730.3,1096.1c-7.2-3.3-4-17-13-16.2l-0.4,2.3c3.4,6.3,7.5,12.3,10.3,18.9c-2.5,13-4.4,26.4-9.3,38.8
		c-0.8-6.3-1.1-12.6-1.8-18.8c-10.8,9.1-5.1,27.3-14.3,37.3c-7.1-1.6-14-4.4-20.2-8.1c-2.7-13.1,10.8-17.5,19.8-22.3
		c-4.7,0.5-9.4,1.1-14.1,1.5c0.1-12.5,10-20,18.4-27.4c-3.5,0.4-6.9,0.8-10.3,1.1c-0.5-7.1-0.4-14.2-0.8-21.3
		c-6.4,9.1-6.8,20.5-10.1,30.8c-3.6-2-7-4.2-10.4-6.2c3.7,9.5,9.6,21.2,0.3,29.6c-1.1-0.2-3.3-0.6-4.4-0.8
		c-3.2-12.9-6.5-25.9-9.8-38.7c-3.1-9.8,9.2-14.6,12.3-22.8c-5.1,3.8-9.8,8-15.3,11.3c-6.7-14.1-8.6-31.4-21.3-41.9
		c4.3,17.6,13.5,33.6,17.8,51.3c-11.1,0.8-21.9-1.5-32.9-2.5c1.2,2.7,3.4,4.2,6.4,4.6c9.7,2,19.6,2,29.3,4c0.8,4,1.1,8.1,0.8,12.3
		c-11.5,1.1-22.9-0.6-34.3-0.3c9.6,5.8,21.6,3.7,32,7.8c3.4,4.3,3.6,10.1,3.9,15.5c-9-0.4-17.8-2-26.8-2.4
		c12.6,8.7,34.3,8.3,36.1,27.5c-12.6-1.7-23.7-8.4-35.5-12.3c10.9,12.1,25.3,20.5,35.7,33.1c-12.2-2.1-22-10-33-14.8
		c2.9,7.2,6.5,14.2,9.3,21.6c-12.2-5.5-21.2-15.9-32.7-22.5c7.2,12.6,18.4,22.1,26.4,34.1c-9-4.2-17.4-9.5-26.7-12.7
		c2.3,6.9,6.3,13.5,6.4,21.1c-12.3-2.6-18.9-15.1-23.4-25.7c-1.1-3.4-4.5-5-6.9-7.2c1.5-1.8,3.1-3.5,4.7-5.2c-3-0.9-5.9-1.7-8.8-2.6
		c-4.6-5.6-8.2-12.1-11.5-18.5c-4.1-6.6-5.3-15.6,0.7-21.4c6.4-6.1,1.9-16.3,8.4-22.2c6.4-5.6,3.6-14.4,4.9-21.7
		c3.3-1.2,6.7-2.3,10.1-3.2c-1.4-0.7-4.2-2.2-5.6-2.9c-2.2,0.2-6.5,0.7-8.7,1c-2.5,7.8,4.8,26.7-9.2,24.2c-6.4-1.4-10.2-7-14.9-10.9
		c-1.6,2.5-3,5.2-4.4,7.9c2.6,8.9,8,16.6,12.2,24.8c-6.8,10.4-0.7,21.8,2.4,32.4c-6.7,15.8,10.3,28.1,14.7,42.3
		c-4.9,8.2,2,15.7,7.4,21.5c18.5,19.4,46.5,27.3,72.7,26.2c13,0,25.4-8.1,38.3-2.6c2-7.6,5.1-15.7,12.6-19.3
		c15.6-8.1,35-13.3,44-29.9c7.3-16.6-1-34.1-4.4-50.5C750.4,1127.1,746,1107.1,730.3,1096.1L730.3,1096.1z M676.9,1241.3
		c-11.7,0.8-23.4,0.4-35.1,0.3l-0.4-2.5c12.3,0.1,24.5-0.1,36.8-0.1L676.9,1241.3L676.9,1241.3z M747,1144.6c-2.9,0-5.7-0.1-8.4-0.5
		c0.3-10.7-0.1-21.3-0.9-32C745.2,1120.5,748.1,1133.4,747,1144.6L747,1144.6z"/>
</g>
<path class="st31" d="M737.8,1112.1c7.5,8.5,10.4,21.4,9.3,32.5c-2.9,0-5.7-0.1-8.4-0.5C739,1133.4,738.6,1122.7,737.8,1112.1
	L737.8,1112.1z"/>
<g>
	<path class="st32" d="M1210.6,604.4c4.2,2.6,7.3,7.1,12.3,8.6c4.6-0.7,9.2-2.4,13.9-2.6c3.1,7.5,4.8,15.5,7.8,23.1
		c18.2,5.4,37.4,7.9,56.2,10.1c10,0.3,25.3,1.9,28.8-10.3c-25.9,2.1-54.2,6.4-77.6-7.8c-5-6.2-7.6-14.1-13-19.9
		c-7.4-1.6-15.8-0.2-22.2-4.9c-10.3-6.6-17.8-16.4-26.8-24.5c-8.2-7.7-19.7-10-28.4-16.8c-4.8-5.9-7.1-13.2-10.8-19.7
		c-5.3-10.2-15-16.9-22.5-25.2c-3.1-3.6-7.6-7.4-5.8-12.7c3.3-9.2,13.7-11.5,20.8-16.9c1.8-16.6-5.6-32.1-10.6-47.4
		c-1.7-4.8,1.4-9.6,2.7-14.1c5.1-12.4,7.4-25.7,13.3-37.8c5.5-12.5,17.3-21,29.3-26.3c7.1-2.5,12.1,4.7,15.7,9.7
		c-2.3,3-5.7,4.7-8.9,6.5c-10.2,15.7-22.9,31.4-24.4,50.8c-0.5,15.4,0.9,30.8,0.5,46.2c0.1,2.7-1.1,4.7-3.5,6.1
		c-0.6,3.3-1.2,6.6-1.7,9.9c10.6,6.5,21.8,13.4,28.1,24.7c4.2,6.5,0.3,14.2-1.3,21c1.5,3.8,3.9,7.1,6.5,10.4
		c4.4-2.6,8.8-5.1,13.2-7.7c-12.7-19.3-19.8-41.4-27.9-62.8c-0.5-2.1-0.8-4.2-0.8-6.2c-1.5-15.3,4.9-29.9,11.9-43
		c5.3-10.4,14.9-17.3,22-26.4c-8.5,1.8-14.6,8.3-21.6,12.8c6.4-18.6,14.5-39.7,34.1-47.9c-6.5,0.2-12.9,0.9-19.3,1.1
		c4.7-10.2,15.6-15.9,25.5-20c8.5-0.7,13,8.7,17.5,14.5c0.2-1.3,0.5-3.9,0.6-5.2c-0.3-8.3-4.9-17.8-12.2-22
		c-12.2,8.8-24.9,18-38.4,24c-2.9-4.3-2.3-11.7-7.2-13.9c-7.5,2.6-12.4,10.1-20.2,12.3c1.8-22.5,9.7-44,20.3-63.8
		c12.7-22.4,30.5-44.2,55.7-52.6c16.4-5.7,34.5-1,48.3,8.7c13.8,9.6,27.3,25.8,23.1,43.8c-6.2,16.8-25.7,26.6-43,25.2
		c-13.8-0.8-25-16.2-19.4-29.3c3.5-11,24.8-8.3,22.7,4.2c-3.5-0.1-6.8-0.9-10-2.5c-1.5,11.4,16,12.2,17.5,1.5
		c2.3-19.1-27.9-24.5-37.4-10.5c-10.3,14.4-2.2,36,13.6,42.5c23.4,9.7,52.7-2.4,64.7-24.1c5.1-12.4,1.6-26.8-5.9-37.5
		c-13.5-19.7-36.3-34.6-60.7-34c-21.7-0.1-41.4,11.6-56.6,26.2c-18.7,18.5-32.3,42.3-38.2,68c-0.6,2.3-1.6,4.4-3.2,6.3
		c-3.7-19.5-9.2-38.6-11.4-58.4c-3.9-35.4-2-71.5,7.9-105.8c11.4-40.9,28.8-82,59.8-112c16.9-16.6,42.4-27.4,65.8-18.5
		c12.2,5.2,25,12.6,32.4,23.8c-11.2,4.6-24,9-29.9,20.5c-7.9,13.2-3.8,35.8,13.1,39.5c13,2.7,23.3-8.6,28.1-19.3
		c7-15,9.4-35.2-2.2-48.6c-15-17-36-31.4-59.5-30.5c-24,0.7-44.8,15.4-60.6,32.3c-29.7,32.5-47,74.4-58.3,116.5
		c-17.5,65.8-11.6,136.4,11.7,199.9c-1.4,2.9-3.2,5.6-5.2,8.1c-12.9,16-16.1,37-27.2,54.1c-4.4,5.6,0.6,11.8,3.3,17
		c6.4,10.2,9.2,22.3,9.3,34.3c-3.5,4.7-9.6,6.5-13.9,10.4c-6.3,4.4-7.3,12.5-11.4,18.5c-6,4.9-12.6,9.1-19,13.6
		c6.4-15.3,3.2-31.9,3.1-47.8c-0.3-11.1,2.3-22,2.4-33c-13.2,26.7-25.1,54.3-36.1,82.1c-33.3-13.9-54.7-44.6-75.2-72.7
		c3.8,14.2,10.6,27.3,16.7,40.7c10.4,21.2,24.7,44,49.5,49.6c1.9,7.5,1.6,15.4,4.2,22.7c2.3,6.3,7.4,10.9,11,16.5
		c-14.7,52.1-25.6,105.6-27.4,160c-6.2-4-9.6-10.9-14.6-16c-18.4-20-41.7-37.6-69.2-42c-28.7-4.7-59.1,10.1-73.9,34.9
		c-7.3,11.9-7.9,29,2.7,39.3c13.8,13.7,34.9,20.8,54.1,17c15.7-3.1,30.3-19.5,25.1-36.1c-7.5-13.8-29.4-17.9-40.9-6.7
		c-4.9,5-3.2,14.7,3.5,17.4c5.7,2.6,13.4-1.8,12.1-8.5c-3.3,1.9-6.7,2.7-10.1,2.6c-3.2-9.3,9.9-12.2,16.5-10.3
		c12.8,5.3,9.1,25.8-2.2,30.9c-16.1,7.6-35.7,1-48.5-10c-9-7.4-9.4-20.8-3.9-30.4c11.4-20.9,35.8-34.1,59.6-31.5
		c24.4,2.2,45.8,16.9,62.5,34c9.8,11,20.4,22.1,25.7,36.1c-5.6-1.1-11-2.8-16.5-3.9c3.7,8,10,14.4,15.1,21.6c5,5.7,3.2,14,4.1,21
		c0.2,22.4,4.4,44.5,4.6,66.8c3.3,11.3,7.8,22.2,13.3,32.6c1.1-39.1-6.1-78.1-6.4-117.2c5.4-9.2,14.5-15.6,20.5-24.4
		c-7.2,1.1-14.1,3.3-21,5c4.1-25.4,18.5-47.9,32.7-69c12.4-18.3,33.8-27.1,52.1-38C1161.8,640.6,1190.1,627.3,1210.6,604.4
		L1210.6,604.4z M1091.1,665.2c-12.1,17.6-25.1,34.6-39.9,50c0.5-42.7,10.4-84.7,21.9-125.6c1.4-7.6,7.3-12.9,10.3-19.7
		c3.8-10.5,1.8-21.8-0.2-32.4c2.2-4,7.7-2.7,11.4-4.3c9.8-1.6,16.7-9.6,25.6-13c13.2,4.7,23,16.8,27.4,29.8
		C1135.4,591,1114.5,629.3,1091.1,665.2L1091.1,665.2z M1194,609c-27.6,17.6-55.8,34.5-85.1,49.1c18.3-27.2,33.2-56.5,45.3-86.9
		c10-1,19.4,5.1,27.8,9.8c4.9,2.6,2.7,9.1,4.2,13.6c0.4,5.3,5.3,8.6,8.1,12.8L1194,609L1194,609z"/>
	<path class="st32" d="M444.1,258.6c0.8,3.9,2.9,7.5,5.4,10.8c13.5-4.5,28.8-5.2,42.3-0.2c5.9,4.6,8.2,12.2,11.5,18.7
		c3.6,2,7.7,2.6,11.7,3.2c1.3-6,2.6-12,3.9-17.9c-24.1-5.6-45-19.3-67.6-28.7c-3.6-1.2-6.3-4-8.3-7c-12.3-18.1-20.1-39.3-21.3-61.1
		l-2.6,0.9c-3,22.8,7.6,43.3,12.3,64.9C435.2,247.9,442.5,251.6,444.1,258.6L444.1,258.6z"/>
	<path class="st32" d="M591,273.5c2.8-4.1,5-13-0.3-15.9l-0.9,2.1c-3.3,11.2-16.3,12.9-26.2,13.5c-1.1,0.8-3.3,2.4-4.4,3.2
		c2.2,2,4.6,4,7.1,5.9C575,281.1,583.6,278.2,591,273.5L591,273.5z"/>
	<path class="st32" d="M766.1,488.6c34.8,10.1,56.6,49.8,49.6,84.8c-5.1,21.9-33,29-52,22.7c-19.7-6-24.3-33.3-12.7-48.4
		c10-11.3,30.7,10.2,17.7,17.7c-2-3.2-4.4-5.4-7.3-6.7c-1.8,7.2,3.1,17.2,11.8,14.6c11.5-6.7,9.7-24.5,0.5-32.4
		c-12.3-13.1-37.3-4.3-40.5,12.8c-2.3,12.2,0.2,25.4,6.8,35.9c10.5,16.3,31.9,22.2,50.2,18.2c15.7-3.3,32.9-12.8,36-30
		c7.8-39.9-14.1-85.5-53.3-99.6c-26.4-9.4-54.5,2.8-75.6,18.7c-16.3,11.4-28.7,27.2-43.1,40.5c5.4-51.4-1.4-102.8-11.1-153.2
		c-3.3,6.2-8.5,12.7-6.5,20.2c6.5,32.1,9.5,65,8.2,97.7c-8.3-6.2-12.1-16.7-18.3-24.9c-31.2-49-60.7-100.2-78.1-155.9
		c13.7-1.3,27.6,0,41.3-0.9c4.5-3.1,5.4-9.4,9.5-12.9c8.6,3.3,15.9,9.1,24.2,13.1c19.4-11.2,39.2-22.3,56.6-36.5
		c6.9-5.8,15.5-14.7,10.2-24.4c-7.5,12-18.8,20.3-29.4,29.2c-10.5,9.9-24.2,15.3-37.4,20.5c-9.1-2.1-17.1-7.4-26.3-8.9
		c-5.6,4.6-9.8,11.6-17.3,13.3c-12.5,4.2-25.6,1.1-38.2-0.8c-14.3-1.9-27.2,8.2-41.1,7.9c-16-6.6-33.6-15.6-51.1-9.4
		c0.6,1.1,2,3.4,2.6,4.5c18.8-1.7,36.3,6.6,51.4,17.1c10.6-1.7,20.1-11,31.5-8.6c11.3,38.2,31.1,72.9,49.3,108
		c-30.3-16.5-59.9-34.8-88.3-54.5c3.7-4.8,9.1-9,9.9-15.5c2.2-10.9-3.1-25-15-27.2c-10.5-2.4-18.5,9-18.1,18.5
		c-0.9,14.4,10.3,25.3,20.3,34.1c25.9,21.3,56.4,35.7,84.2,54c13.1,8.7,26.6,18,34.1,32.3c14.8,26.5,27,56,27.3,86.8
		c-7-3.2-13.6-7.4-21.1-9.4c3.9,11.9,14.2,21.6,16.2,33.9c-15.3,64.7-42.5,125.7-62.5,188.9c-3.8-0.6-2.5-6-3.6-8.6
		c-4.9-36.7-8.7-73.6-14.5-110.2c-1.8,0.1-5.3,0.1-7.1,0.2c-3.9,8.1,0.2,17.4,0.5,26c4.9,37.2,10.6,74.3,15.1,111.6
		c1.9,16.3-9.9,29.5-13.5,44.7c-2,7.3-5.9,13.8-7.9,21.2c4.6,11.4-1,23-2.6,34.4c-5.5,33.1-9.8,67.1-5.3,100.6
		c-5.1-2.3-4.9-8.7-6.7-13.1c-17.1-58.3-31.4-118.6-64.1-170.5c-24.4-38.4-59.7-72-103.7-86.4c-7.7-7.8-8.1-20.5-10.3-30.9
		c-5.1-31.2,14.1-64.2,43.9-74.9c13.5-5.1,31.3-4.5,40.7,7.9c11,15.1,12.2,37.4,2.6,53.5c-7,12-25.2,16.4-35.9,6.8
		c-8.8-7.7-2.1-26.4,10-25c6.6,3.7-0.4,8.1-2.5,11.9c5,1.3,11.9-1.4,12-7.2c1.4-8.7-8.4-15.7-16.4-13.2
		c-15.1,6.3-23.2,28.6-10.6,41.1c12.9,14.1,36.6,10,48-3.9c15.7-18.9,15.7-48.1,3.3-68.6c-7.9-13.2-23.9-19.3-38.7-17.3
		c-30.7,3.6-56.7,28.6-64.4,58.2c-5.1,19-1.4,38.8,3.5,57.5c-37.7-8.4-79.8-4.8-112.2,17.7c-23.3,16-37.7,42.1-45.6,68.7
		c-6.2,21.4-7.2,46,4,65.9c11,18.5,32.7,31.5,54.6,27.9c17.6-1.2,30.8-13.8,42.4-25.6c14.8,4.1,31.2,6.8,45.6,0
		c16.7-7.5,27.4-27.2,23.9-45.2c-5.4-19.5-37.1-22.4-46.2-4.4c-4.7,7.7-0.1,20.5,9.9,20.3c6.2-0.7,9.2-6.7,8.5-12.4
		c-4.9-0.4-6,6.3-11.2,4.8c-4.8-11.7,14-22.3,22.1-13c9.5,11.2,5.4,30.5-6.8,38.2c-9.6,6.1-21.8,6.4-32.5,3.9
		c-3.6-0.9-9.8-2.2-7.5-7.4c4.7-16.9-1.8-34.6-15-45.7c4.9-16.8,19.8-29.8,35.4-36.8c21.8-9.2,46.8-3.7,66.8,7.5
		c28.3,15.7,51.4,39.7,68.8,66.7c7.4,12.3,15.1,24.9,17.5,39.3c-7-0.2-13.9-1.2-20.9-1.5c5.5,9.8,16.5,14.9,23.3,23.7
		c1.8,13.1,0.1,26.5,2.8,39.6c0.8,1.7,2.3,5.1,3.1,6.8c3.2-0.8,6.4-1.8,9.5-2.8c-0.9-14.2-2.1-28.4-3.3-42.5
		c8.7,15.7,12.9,33.7,17.2,51.1c3.1,2.7,6.3,5.4,9.3,8.5c5.7,4.7,3.9,12.8,5.1,19.2c1.1-1.4,3.4-4.1,4.5-5.4
		c7.2,3.6,12.2,10.3,17.8,16c5.4,6.2,12,12.8,12.1,21.7c0.8,9.8-3.5,20-0.1,29.6c3.5,8.4-1.2,16.8-4.1,24.6c3.4,7,6,15.2,11.6,20.8
		c1.4-2.7,2.8-5.4,4.4-7.9c4.7,3.9,8.5,9.5,14.9,10.9c-4.8-14-17.7-26.2-14.9-41.9c3-21.7,7.6-43.2,13.5-64.2
		c3.9-12,6.2-25.1,13.2-35.7c5.8,2.9,10.9,7.1,16.6,10.3c0.4-12.4-13.5-16.5-22.3-21.7c-10.2-3.8-12.9-15.1-15.1-24.5
		c-5.1-5.1-10.9-9.7-15.7-15.1c0.4-7.7,8.6-12.4,15.6-12.6c9.5-0.7,16.1,7.3,22.7,12.9c0.5-0.9,1.4-2.7,1.9-3.6
		c-2.5-6-5.1-11.9-7.3-17.9c-7-18.7,3.8-37.3,13.4-52.7c-2,0.4-5.8,1.1-7.8,1.4c0.6-11.9,6.4-22.9,15.5-30.5c-1-0.6-3.1-1.9-4.2-2.5
		c0.6-4.3,1.6-8.5,2.6-12.6c-4.8,2.7-8.9,6.3-13.3,9.5c-4.5-1.1-7.7-5.5-11-8.5c23.2-67.7,53.7-133.1,70.2-203
		c7.7-10.9,19.2-18.8,26.1-30.3c-6.6,1.1-13.1,2.9-19.8,2.9c9.6-18.2,24.9-32.9,39.7-46.9C712.1,498.2,738.5,481.9,766.1,488.6
		L766.1,488.6z M283.1,857c-11.4-4.8-11.9-19.7-11.3-30.3C284.9,828.6,283.8,846.8,283.1,857z M315.1,765.2
		c-21.1,6.6-37.9,23-47.9,42.5l-2.2,1.2c-15.3-2.6-33.3-3.1-45.3,8.3c-14.5,11.6-12.3,36.2,1.6,47.4c12.9,11.7,36.6,8.7,44-7.8
		c3.9,4.6,10.5,8.5,11.7,14.7c-8.4,17.4-27.4,32.5-47.7,28c-17.4-5.1-29.5-20.3-37.4-35.8c-8.3-16.3-7.8-36.4,0.8-52.4
		c13.2-25.9,37-44.9,62.4-58.2c24.5-12.7,51.8-21.7,79.7-19.5c5.9,0.7,14.4-0.7,16.9,6.4c4.9,9.7,10.7,18.8,16.1,28.3
		C351.1,762.2,332.4,759.7,315.1,765.2L315.1,765.2z M261.7,844.3c-3.1-4.3-6.4-8.5-10.7-11.4c0,9.1,2.1,19.5-3.2,27.6
		c-4.1,4-9.7-0.6-12-4.2c-6.6-9.2-10.5-24.3-1.1-32.9c7.8-5.8,18.4-4.7,27.4-3.2C261.6,828.1,261.1,836.2,261.7,844.3L261.7,844.3z
		 M404.9,789.5c-18.2-10.9-30.4-29.3-40.1-47.7c34.2,11.7,56.3,43.4,74.2,73.1C427.4,806.7,416.8,797.1,404.9,789.5z M566.8,952.4
		c3.2,2.6,12,3.2,8.8,9.4c-9.8,26.8-16.4,54.8-26.7,81.5c2.6-13.8-0.8-27.2-7.3-39.3c-3.4-27.7-3.4-56.2,0.9-83.8
		C557.4,923.4,561.9,940,566.8,952.4L566.8,952.4z M546.7,894.9c-2-3.4-0.5-8.4,2.4-10.7C554.9,884.3,552.5,897.5,546.7,894.9z
		 M578.2,811.5c4.3,11.1-6.4,20.1-8.7,30.4c-6.4,15.6,4.5,31.7-0.4,47.7c-7.4-5.1-11.3-13.5-14.9-21.4c-1.7-4.3-4.5-8.9-2.2-13.5
		c4.9-16,11.3-32.3,23.4-44.3L578.2,811.5L578.2,811.5z"/>
	<path class="st32" d="M1850.9,742.7c-16-41.1-47.7-76.7-88.1-94.9c-31.8-14.1-69.1-11.5-100.8,1.3c-41.1,16.6-76.3,44.9-107.6,76
		c-43.1,42.7-77.9,92.7-115.8,139.9c14-8.3,29.6-14.1,45.8-16.2c3.3-0.7,5.4,0.7,6.3,4.2c2-2.6,3.7-5.2,5.4-7.9
		c-1.5-0.1-4.4-0.2-5.9-0.3c-2.3,0-6.8,0.1-9.1,0.2c6.5-10.5,15.4-19.1,23.1-28.7c23.1-26,45-53.2,69.1-78.4
		c30.6-31.7,65.4-62.2,108.5-74.6c28.3-8.5,59.3-3.3,85.3,9.9c42.1,22.4,73.9,65.9,77.3,114.2c1.8,21.6-7.3,45.6-27.4,55.8
		c-23.9,14.1-57.2,4.3-72-18.5c-8.3-12.7-7.4-30.4,2.2-42.1c13.7-17.9,43.8-16.8,58.4-0.5c10.9,12,3,33.7-12.3,37.5
		c-9.5,2.5-21.9-3.5-21.9-14.2c-1-6.3,3.6-10.8,7-15.3c-9,4.7-17.2,16.6-10,26.1c10.5,9.2,27.2,9.2,39.1,2.6
		c16.5-9,20.2-34.9,6-47.5c-16.7-14.5-42.2-14.3-61.2-4.5c-26.1,13.8-32.1,55.3-9.1,74.7c28.9,25.4,79.8,19.4,100.9-13.2
		C1862.4,803.7,1861.6,770.2,1850.9,742.7L1850.9,742.7z"/>
	<path class="st32" d="M1386,846.7c-6.4-2.2-7.3-9-9.7-14.3c-6.3-3.2-15.5-7-11-15.7c1.8-7.4-4.4-15.2-12.1-12.1
		c-0.5-3.6-1-7.2-1.4-10.7c-3.9,0.4-7.6,0-10.9-1.3c-2.6-4.5-4.5-9.4-7.4-13.5c-3.6,0.5-7.1,1.4-10.7,1.8c-2.4-4.5-4.1-9.3-6.9-13.5
		c-3.7,1.5-7.3,3.2-10.9,4.8c-0.5,2.8-1.6,6.2,1.7,7.9c2.9-1.1,5.7-2.3,8.6-3.3c2.4,3.7,4.2,7.9,6.9,11.5c3.5-0.1,7-0.4,10.7-0.3
		c5.2,8.2,3.6,19.2,9.7,27.2c5,6.3,12.8,9.4,18.6,14.9c-0.6,4.8-1.9,9.6-2.9,14.4c3.6-1.1,7.1-2.3,10.8-3.1
		c6,6.3,7.9,15.5,14.3,21.6c3.3,1.1,6.7,1.5,10.2,2.2C1394.7,858,1394.1,849.1,1386,846.7L1386,846.7z"/>
	<path class="st32" d="M1587.6,930.8c0.8-7.7,6.3-14.5,12.9-18.2c6.2-1.6,12.6-1.5,18.9-2.3l0.1-2.6c-8.2-0.3-17-1.4-24.5,2.6
		c-6.2,4.8-9.4,12.6-15.5,17.5c-8.6,0.2-17.1-1.4-25.7-1.7c0.2,2.8,0.4,5.7,0.8,8.7c4.4-0.3,8.8-0.6,13.4-0.2
		c7,12-0.7,29.6,9.6,40.2c4.2-12.7-1.2-25.9-0.1-38.9c20.8,3.6,40,13.6,60.9,17.1C1626.4,937.6,1605.1,935.9,1587.6,930.8
		L1587.6,930.8z"/>
	<path class="st32" d="M1627.9,970.8c-12.1,0.7-24.5-1.3-36.4,1.6c-3,5.2-4.2,11.7-9,15.7c-8.3,0.8-16.5-2.3-24.7-2.6
		c1.3,5.3,3.1,10.4,4.5,15.8c-12.9,4.2-18.1-10.5-29.1-12.7c3,7.5,8.4,13.7,11.3,21.2c-3.3,2.8-7.4,1.1-11.1,0.5
		c-6-1.4-12.3-0.8-18.3-0.9c1.1-5.5,5.1-9.6,7.9-14.1c-4.4-2.7-9.1-4.9-13.5-7.3c2-2.3,4.1-4.3,6.2-6.4c-3.3-4.7-8.7-7.6-12.3-11.9
		c2.6-1.2,5-2.7,7.1-4.5c-3.2-7.6-7.7-15-7.5-23.4c8.3-1.8,10.3,9.5,14.4,14.7c-1.8-7.9-2.3-16.5-7.2-23.1c-6.9-4.6-15.9-8-24.2-5.7
		c-2.2,11.3,7.4,21.2,8.9,32.3c2.1,3.9-6.4,6.2-7,2c-3.2-5.7-4.8-12.3-9.3-17.1c-4.5,3.6-10.4,8.5-7,14.9
		c3.6,18.2,22.8,27.2,27.6,44.6c-10.1-2.4-17.6-10.3-25.6-16.3c-5.8-5.2-13.1-9.4-16.1-16.8c-1.8-3.6-3.4-7.3-6.4-9.9
		c-4.3,3.4-9.5,8.5-7.2,14.6c3.4,11,7.6,21.9,12.6,32.4c5,2.9,11.4-0.2,16.9,1.7c10.4,4.2,24.2,6.1,26.8,19.2c8,3,16.5,6.1,25.2,4.9
		c4-3.2,7.3-7.1,11.4-10.1c4.2-0.8,8.5-1,12.9-1.7c3-3.2,5-7.3,8.5-10c3.6-0.4,7.3-0.5,11.1-0.5c4.8-1.9,8.2-5.6,11.3-9.7
		c4.3,0.7,8.5,2.1,12.9,2.5c0.3-3.6,0.6-7.2,0.8-10.7c6.1-1.4,12.3-1.8,18.5-2.9c0.8-4.2,1.3-8.4,2.1-12.5
		c5.3-1.1,10.7-1.5,16.1-2.3c-0.2-1.2-0.5-3.6-0.7-4.8L1627.9,970.8L1627.9,970.8z"/>
	<path class="st32" d="M1273.8,1019.4c-30.1,16.9-63.5,27.1-97.2,34c6.3,2.7,13.1,4.3,20.1,3.8c18.4-1,36.9,1.3,55.3-1.2
		c33.1-16.9,66.1-35.1,93.8-60.3c-6.7-3.9-13.4-7.9-21.1-9.3C1307.7,997.1,1292,1010.3,1273.8,1019.4L1273.8,1019.4z"/>
	<path class="st32" d="M468.4,1113.8c-15.4,2.6-31.2,1.4-46.7,3.5c1.8-6.1,8.9-6.9,14-8.8c13.6-4,28.1-8.5,37.9-19.3
		c2.7-4.8,1.1-10.7,1-15.9c-8.4,3.9-16,10.2-25.4,11.6c1.1-14.7,21-16.6,26.8-29.2c-8.4-4.4-17.4-8.1-26.8-9.2
		c-5.2,1.2-7.2,6.8-10.4,10.5c4.2-0.8,8.4-1.3,12.7-1.6c-2.5,10.6-12.8,14.7-21.7,18.7c0.9,3.3,3.8,6.2,3.3,9.8
		c-4.5,0.5-9,0.6-13.5,1.3c0.2,2.9,0.5,5.8,0.9,8.9c-6.1,0-12-0.5-18-0.2c0.3,5,1.1,10.1,1.4,15.2c-6.4-1-10.5-6.4-16-9
		c-4.5-2-9.3-3.2-13.3-5.9c1.7-10.1,21.3-5.4,20.2-16.8c-9.9,0.7-26.5,7.6-30-6.3c3.4-3.6,10.5-4.8,11.6-9.8
		c-6.6-5-15.6-5.7-21.8-11.1c-3.9-6.7-0.3-14.6-0.5-21.8c-8.9-7.6-18.2-15.2-28.4-21c-1.2,0.3-3.6,1.1-4.8,1.4c3,3.7,6.5,7.2,9.7,11
		c-0.2,4.3-5.7,6.5-5.6,11.1c3.8,4.5,8.3,8.4,12.2,12.9c-0.4,3.9-2.4,7.4-3.3,11.3c3.6,3,8.3,4.2,12.4,6.4c-1.6,2.8-3.3,5.5-4.8,8.4
		c5.7,6.5,14,10,20.3,15.8c0.3,4.5-1.5,9.3,0.4,13.7c4,3,8.6,5.3,12.7,8.5c1.8,5.5,1,12.2,4.5,17.2c8.2,5.3,17.5,9.4,27.2,10.8
		c3.1-2.2,6.2-4.5,9.7-6c7,1.5,13.4,5.2,20.8,5.4c7.6-0.2,12.5,6.3,18.6,9.8c7.7,0.4,13.1-6.1,18.4-10.6
		c6.2-6.2,13.7-10.7,20.1-16.6c-0.1-4.9-1.6-9.6-3.7-13.8C482,1104.6,476.6,1112.7,468.4,1113.8L468.4,1113.8z"/>
	<path class="st32" d="M589.4,1073.3c0.3,1.2,0.8,3.6,1.1,4.7c1.4,0.8,4.2,2.2,5.6,2.9c-3.4,0.9-6.8,2-10.1,3.2
		c-1.4,7.3,1.4,16.1-4.9,21.7c-6.6,5.8-2,16.1-8.4,22.2c-6,5.8-4.8,14.8-0.7,21.4c11.1-7.9,11.4-22,16-33.5
		c4.7,0.4,9.4,1.4,14.2,2.2c-4.1-4.7-8.5-9.1-11.7-14.4c2.3-6.6,9-10.3,12.1-16.3c2-5.1,3.5-10.4,4.2-15.8c-1.1-1.4-3.3-4.2-4.5-5.6
		C597.6,1067.6,593.2,1069.9,589.4,1073.3L589.4,1073.3z"/>
	<path class="st32" d="M713.7,1225.4c-7.5,3.7-10.6,11.7-12.6,19.3c1.5,4.1,7,3.8,10.4,5.8c27.8,10.8,57.7,14.9,87.4,13.8
		c16.3-5.8,30.6-15.7,44.5-25.9C800.1,1243.8,753.9,1244,713.7,1225.4L713.7,1225.4z"/>
</g>
<path class="st33" d="M641.4,1239.1c12.3,0.1,24.5-0.1,36.8-0.1l-1.3,2.3c-11.7,0.8-23.4,0.4-35.1,0.3L641.4,1239.1L641.4,1239.1z"
	/>
</svg>
