<?xml version="1.0" encoding="utf-8"?>
<!-- Generator: Adobe Illustrator 21.0.2, SVG Export Plug-In . SVG Version: 6.00 Build 0)  -->
<svg version="1.1" id="Layer_1" xmlns="http://www.w3.org/2000/svg" xmlns:xlink="http://www.w3.org/1999/xlink" x="0px" y="0px"
	 viewBox="0 0 397 548" style="enable-background:new 0 0 397 548;" xml:space="preserve">
<style type="text/css">
	.st0{fill:#FFFFFF;}
</style>
<path class="st0" d="M264.7,529.5c-3.5,3.6-20-9.5-35.2-28c-14.4-17.4-36.2-65.6-43.5-95.9c-7.6-31.5-14-42.9-41.1-73.1
	c-21.8-24.3-22.6-25.9-9.3-18.9c8,4.2,21.7,14,30.4,21.8l15.9,14.2l0-25.1c0-38,5-67.8,11.3-67.8c11.6,0,15.7,11.4,10.7,29.7
	c-3.7,13.8-3.5,18.4,1.3,21.4c4.9,3.1,5,5.6,0.4,13.1c-6.2,10.2-7.2,37.6-2.8,71c2.4,17.8,4.2,21,10.9,18.9c7-2.2,7.7-0.3,5.7,15.2
	c-2.6,19.9,7.2,43.6,33,79.6C260.6,517.2,266.2,528,264.7,529.5L264.7,529.5z M141.3,349.1c0,13.8-28.7,11.4-60.9-5.1
	c-14.9-7.6-34.8-15.1-44.3-16.7c-10.3-1.7-15.6-4.6-13.1-7.1c5.4-5.5,64.4-10.4,79.1-6.7C118.1,317.7,141.3,338.6,141.3,349.1
	L141.3,349.1z M242,309.9c3.9,24.3-7.1,17.5-12-7.3c-3.3-16.9-2.6-21,4.2-26.1c10.6-7.9,19.2-0.1,11,9.9
	C241.5,290.9,240.3,299.7,242,309.9L242,309.9z M118.8,302.6c-5.5,3.5-62.4,1.4-67-2.4c-3.2-2.7,50.1-20.5,61.5-20.5
	c13.3,0,32.4,11.3,32.4,19.2c0,2.7-4.5,3.7-10.2,2.2C130,299.6,122.4,300.3,118.8,302.6L118.8,302.6z M324.2,276.2
	c2.1,11.5,1.4,17.2-1.9,17.2c-2.8,0-5-3.5-5-7.8c0-4.3-4.4-12.6-9.9-18.5c-7.6-8.3-8.7-11.9-4.5-16.2
	C310.6,243.2,320.3,254.6,324.2,276.2L324.2,276.2z M153.8,272.9c1.8,2,0.7,2.2-2.4,0.3c-7.2-4.2-7.3-22.2-0.2-29.4
	c7.6-7.8,21.7-6.9,21.7,1.4c0,3.8-3,6.9-6.6,6.9C158.4,252.1,149.2,267.6,153.8,272.9L153.8,272.9z M286.2,244.7
	c-27,23-49.5,23-78.3,0.2c-24.6-19.5-41.8-25.1-58.9-19.1c-19.3,6.7-20,0.2-1.1-9c16.5-8,17.2-8,51.5,4.4
	c42.1,15.2,46.4,15.3,75,0.9c25.5-12.8,31.2-13.5,51.2-6.3c21.1,7.5,18.9,18.8-2.9,15.3C307.7,228.6,303.2,230.2,286.2,244.7
	L286.2,244.7z M264,211.9c-15.3,9.7-23.3,9.8-36,0.8c-21-15-4.5-39.5,30.5-45.2c10-1.6,22.3-7.1,27.2-12.1
	c10.9-11.1,13.5-11.4,13.5-1.7C299.2,166.7,276.7,203.9,264,211.9L264,211.9z M99.6,206.1c-9.3,15.1-12.3,10.5-6.5-9.9
	c6.9-24.2,18.9-32.9,28-20.4c7,9.7,1.8,21.1-9.7,21.1C108,196.9,102.7,201,99.6,206.1L99.6,206.1z M200.7,190.4
	c1.8,23.1-3,22.2-9.6-1.7c-6.5-23.9-5.8-62,1.2-71.9c5.6-7.8,6.4-7.8,13.5-0.6c9.4,9.6,9.5,15.2,0.4,37.2
	C202.3,163.2,199.8,179.5,200.7,190.4L200.7,190.4z M333.1,197.1c-10.3,4.3-35.7,5.6-39.2,2c-1.3-1.3,2.4-12,8.3-23.8
	c5.8-11.8,10.6-25.3,10.6-30s3.1-14.7,6.8-22.1c5.5-10.9,9.6-13.3,21.6-12.9c8.1,0.3,19.1-1.8,24.5-4.7c14.8-8.1,16.3-6.5,6.8,7.3
	c-4.8,7-9.9,23.8-11.5,37.4C358.1,175.6,349.3,190.4,333.1,197.1L333.1,197.1z M179.8,184.2l3.1,17.2l-18.4,0
	c-22.3,0-27.7-7.9-27.7-40.4c0-17.6-2.4-25.3-11.1-34.8c-6.1-6.7-13.2-12.2-15.8-12.2c-2.6,0-4.7-2.1-4.7-4.6c0-6,16.2-5.9,27.3,0.1
	c4.8,2.6,12,11.4,16,19.5c4,8.1,12,20,17.7,26.3C172,161.8,178.1,174.8,179.8,184.2L179.8,184.2z M215.6,165.8
	c4.5-18.3,14.9-28.1,35.8-33.7c21.7-5.8,29.7-14.8,29.7-33.1c0-20.3,10.5-12.9,15,10.6c3.4,17.6,2.7,21.1-5.5,27.9
	c-5.2,4.3-20.5,11.4-34.1,15.7c-13.6,4.3-28.1,11.8-32.3,16.5C213.8,181.6,211.9,180.7,215.6,165.8z M179.1,131.4
	c-1.5,8.2-5.3,14.9-8.5,14.9c-5.3,0-24.9-39.4-24.9-50c0-2.5,8.3-14.4,18.5-26.4c15.1-17.7,18-24.1,15.9-34.8
	c-3.2-16.1,3-16.7,17.7-1.7c15.3,15.6,14.5,36.4-2.5,62.3C188,107.1,180.7,123.1,179.1,131.4L179.1,131.4z M237.1,125.3
	c-1.8,1.9-28.2-28-28.2-31.9c0-0.6,3-8.4,6.6-17.3c5.8-14.2,8.6-16.2,22.6-16.2c20.5,0,23.4,5.2,8.6,15.1
	c-10.4,7-11.5,10.1-9.6,27.9C238.4,113.9,238.4,124,237.1,125.3L237.1,125.3z M262.6,110c-5.9,4.7-12.3,8.5-14.2,8.6
	c-5,0.2-4.1-8.1,1.2-11.5c2.5-1.6,4.1-8.4,3.4-15.1c-1.8-17.4,13.1-19.9,17.3-2.9C272.8,99,271.2,103.3,262.6,110L262.6,110z
	 M312.4,91.1l-0.4,25.3l-9.2-21.8c-7.3-17.4-11.4-21.8-20.1-21.8c-7.4,0-12.2-3.6-15.1-11.4c-3.6-9.6-6.9-11.2-20.8-10.3
	c-23.5,1.5-23.3-6.7,0.3-16.6l20.1-8.4L290,45.9C312.3,65.4,312.7,66.3,312.4,91.1L312.4,91.1z"/>
</svg>
